<?xml version="1.0" encoding="UTF-8" standalone="no"?>
<!-- Created with Inkscape (http://www.inkscape.org/) -->

<svg
   xmlns:dc="http://purl.org/dc/elements/1.1/"
   xmlns:cc="http://creativecommons.org/ns#"
   xmlns:rdf="http://www.w3.org/1999/02/22-rdf-syntax-ns#"
   xmlns:svg="http://www.w3.org/2000/svg"
   xmlns="http://www.w3.org/2000/svg"
   xmlns:sodipodi="http://sodipodi.sourceforge.net/DTD/sodipodi-0.dtd"
   xmlns:inkscape="http://www.inkscape.org/namespaces/inkscape"
   width="512"
   height="512"
   viewBox="0 0 135.46666 135.46667"
   version="1.1"
   id="svg8"
   sodipodi:docname="MainMenuIcons.svg"
   inkscape:export-filename="E:\Work\XamarinTestProject\XamarinTestProject\XamarinTestProject\Images\musicIcon.png"
   inkscape:export-xdpi="96"
   inkscape:export-ydpi="96"
   inkscape:version="0.92.2 (5c3e80d, 2017-08-06)">
  <defs
     id="defs2" />
  <sodipodi:namedview
     id="base"
     pagecolor="#ffffff"
     bordercolor="#666666"
     borderopacity="1.0"
     inkscape:pageopacity="0.0"
     inkscape:pageshadow="2"
     inkscape:zoom="0.7"
     inkscape:cx="207.09327"
     inkscape:cy="212.66373"
     inkscape:document-units="mm"
     inkscape:current-layer="layer3"
     showgrid="false"
     units="px"
     borderlayer="false"
     inkscape:pagecheckerboard="true"
     inkscape:snap-path-clip="true"
     inkscape:snap-path-mask="true"
     objecttolerance="20"
     gridtolerance="10000"
     inkscape:snap-perpendicular="true"
     inkscape:snap-tangential="true"
     inkscape:object-paths="true"
     inkscape:snap-intersection-paths="true"
     inkscape:snap-smooth-nodes="true"
     inkscape:snap-midpoints="true"
     inkscape:snap-object-midpoints="true"
     inkscape:snap-center="true"
     inkscape:snap-text-baseline="true"
     inkscape:snap-page="true"
     inkscape:snap-bbox="true"
     inkscape:bbox-nodes="true"
     inkscape:bbox-paths="true"
     inkscape:snap-bbox-edge-midpoints="true"
     inkscape:snap-bbox-midpoints="true"
     inkscape:window-width="1304"
     inkscape:window-height="745"
     inkscape:window-x="54"
     inkscape:window-y="-8"
     inkscape:window-maximized="1" />
  <metadata
     id="metadata5">
    <rdf:RDF>
      <cc:Work
         rdf:about="">
        <dc:format>image/svg+xml</dc:format>
        <dc:type
           rdf:resource="http://purl.org/dc/dcmitype/StillImage" />
        <dc:title />
      </cc:Work>
    </rdf:RDF>
  </metadata>
  <g
     inkscape:label="HeadPhones"
     inkscape:groupmode="layer"
     id="layer1"
     transform="translate(0,-161.53332)"
     style="display:none"
     sodipodi:insensitive="true">
    <circle
       style="fill:#a81818;fill-opacity:1;stroke:none;stroke-width:1.06607401;stroke-linecap:round;stroke-linejoin:miter;stroke-miterlimit:4;stroke-dasharray:none;stroke-opacity:1"
       id="path42"
       cx="67.73333"
       cy="229.26665"
       r="67.73333" />
    <path
       style="fill:#333333;fill-opacity:1;stroke:none;stroke-width:0.26458332;stroke-linecap:round;stroke-linejoin:miter;stroke-miterlimit:4;stroke-dasharray:none;stroke-opacity:1"
       id="path903"
       d="m 96.609801,262.03773 c -0.312483,0.57978 -0.741725,1.12257 -1.112337,1.67479 -0.479367,0.74964 -0.904362,1.528 -1.387542,2.27554 -0.354337,0.59145 -0.75289,1.15319 -1.082532,1.75975 -0.314534,0.62141 -0.688027,1.21274 -0.995169,1.83796 -0.356283,0.64244 -0.755957,1.26069 -1.203005,1.84363 -0.423312,0.54079 -0.940345,0.99369 -1.461788,1.43606 -0.428448,0.39719 -0.91108,0.7209 -1.383409,1.05987 -0.468984,0.40781 -1.019603,0.69398 -1.578808,0.9557 -0.553807,0.29367 -1.153462,0.48227 -1.724562,0.73686 -0.491003,0.32049 -1.063974,0.46434 -1.583455,0.72321 -0.719103,0.31512 -1.463251,0.55764 -2.232384,0.71322 -0.631966,0.15449 -1.259454,0.32495 -1.891501,0.47915 -0.635011,0.10068 -1.256615,0.26257 -1.89138,0.36542 -0.638863,0.0371 -1.244459,0.2344 -1.856499,0.40131 -0.391813,0.13747 -0.748191,0.34 -1.101471,0.55305 -0.425902,0.27185 -0.863986,0.5219 -1.29363,0.78731 -0.359447,0.28558 -0.756253,0.53246 -1.165825,0.73977 -0.270984,0.15644 -0.533133,0.31017 -0.746662,0.54279 -0.314532,0.34249 -0.519989,0.7682 -0.741903,1.1729 -0.398182,0.59757 -0.674012,1.25057 -0.890862,1.93183 -0.277535,0.74447 -0.522626,1.50048 -0.792266,2.2476 -0.19218,0.64192 -0.314441,1.29864 -0.514096,1.93949 -0.277254,0.77137 -0.598588,1.51977 -0.98715,2.24162 -0.311182,0.62134 -0.672624,1.21667 -1.108612,1.75778 -0.488053,0.64156 -1.196668,0.96782 -1.909029,1.2903 -0.629203,0.30753 -1.285987,0.5173 -1.956547,0.7102 -0.623395,0.15007 -1.231431,0.35257 -1.857681,0.49102 -0.608897,0.0849 -1.208461,0.21735 -1.817048,0.3061 -0.621162,0.0848 -1.248142,0.10477 -1.874144,0.11551 -0.598069,0.006 -1.196189,0.004 -1.794282,0.003 -0.629746,0.0131 -1.25195,0.008 -1.874777,-0.0914 -0.732671,-0.0781 -1.447459,-0.24774 -2.159519,-0.43107 -0.792874,-0.1645 -1.593749,-0.29368 -2.380326,-0.48751 -0.749575,-0.16633 -1.488284,-0.36675 -2.207377,-0.63645 -0.802311,-0.38133 -1.595157,-0.78892 -2.368256,-1.22781 -0.660482,-0.33623 -1.270577,-0.75916 -1.916279,-1.12104 -0.552979,-0.2546 -1.080534,-0.55541 -1.648613,-0.77694 -0.613365,-0.26185 -1.254972,-0.4311 -1.914184,-0.5213 -0.649777,-0.13874 -1.304367,-0.23181 -1.966494,-0.28152 -0.815036,-0.0159 -1.622539,-0.12997 -2.433027,-0.20761 -0.801515,-0.0769 -1.606984,-0.0876 -2.411465,-0.0962 -0.894072,-0.007 -1.788181,-0.005 -2.682269,-0.004 -0.879253,0.0205 -1.761996,-0.039 -2.639251,0.0305 -0.739814,0.0774 -1.464833,0.26694 -2.185767,0.44629 -0.647195,0.11594 -1.233094,0.41798 -1.855931,0.6162 -0.554645,0.21237 -1.094079,0.48265 -1.606799,0.78378 -0.609206,0.35285 -1.238475,0.67159 -1.833296,1.04864 -0.456953,0.24809 -0.88026,0.54489 -1.242062,0.91828 -0.358935,0.38596 -0.720394,0.78742 -0.982503,1.2471 -0.325515,0.49536 -0.576215,1.02674 -0.896296,1.52613 -0.171252,0.28169 -0.195443,0.60775 -0.220654,0.92847 0.08886,0.45922 0.148191,0.92417 0.193967,1.38962 0.02571,0.34942 0.0022,0.19738 0.05485,0.45827 0.254798,1.49028 -1.852776,1.85062 -2.107574,0.36034 v 0 c -0.07078,-0.45019 -0.04938,-0.2458 -0.07542,-0.61191 -0.05683,-0.5943 -0.187557,-1.17984 -0.196247,-1.778 0.05987,-0.66789 0.182408,-1.3257 0.551017,-1.90069 0.310988,-0.48506 0.549127,-1.00695 0.871308,-1.48619 0.370468,-0.58777 0.79636,-1.14016 1.285745,-1.63507 0.482358,-0.48324 1.023604,-0.89955 1.625178,-1.22608 0.621306,-0.38871 1.27009,-0.72998 1.906671,-1.09278 0.652238,-0.36945 1.32505,-0.72106 2.032738,-0.97023 0.664743,-0.2035 1.285528,-0.54135 1.979124,-0.65079 0.839734,-0.2089 1.685441,-0.42353 2.548728,-0.50404 0.92899,-0.0619 1.860263,-0.0265 2.790932,-0.036 0.902308,-5.3e-4 1.804638,-0.003 2.706931,0.004 0.86496,0.009 1.73088,0.0226 2.592578,0.10588 0.796697,0.0766 1.589944,0.18938 2.391172,0.204 0.70735,0.0545 1.409475,0.14488 2.103265,0.29638 0.827641,0.11964 1.637004,0.32509 2.408735,0.65305 0.652761,0.26526 1.272791,0.59324 1.906148,0.90044 0.645972,0.36679 1.262441,0.78336 1.922928,1.1248 0.67608,0.38622 1.373058,0.7362 2.067685,1.08639 0.640942,0.2459 1.305001,0.4104 1.97359,0.56291 0.786649,0.2059 1.598052,0.30674 2.38996,0.48997 0.649454,0.16725 1.300049,0.32362 1.969024,0.39117 0.509029,0.0851 1.019183,0.0664 1.53497,0.0637 0.585083,7.9e-4 1.170196,0.003 1.755261,-0.003 0.535731,-0.009 1.072452,-0.0234 1.604328,-0.0938 0.558707,-0.0799 1.108713,-0.20598 1.668227,-0.27918 0.582044,-0.12394 1.144037,-0.32358 1.723853,-0.45733 0.570987,-0.16288 1.129847,-0.33355 1.66357,-0.60261 0.411419,-0.18616 0.849866,-0.32453 1.135526,-0.69599 0.360005,-0.42913 0.626761,-0.9272 0.883814,-1.42281 0.32803,-0.60011 0.590396,-1.22447 0.827691,-1.86538 0.213828,-0.66877 0.316346,-1.36293 0.543933,-2.02748 0.264861,-0.72208 0.49508,-1.45701 0.76781,-2.17645 0.264409,-0.80492 0.580996,-1.59014 1.05011,-2.30071 0.323996,-0.59069 0.643718,-1.19479 1.124768,-1.67644 0.394729,-0.37097 0.823716,-0.69228 1.309126,-0.9367 0.357513,-0.14457 0.656148,-0.42382 0.973916,-0.63472 0.436374,-0.26777 0.879488,-0.52288 1.311232,-0.79803 0.522174,-0.31452 1.059191,-0.60135 1.643848,-0.78494 0.685488,-0.18602 1.366671,-0.40122 2.08052,-0.44954 0.578831,-0.0908 1.144399,-0.24586 1.724027,-0.33178 0.662996,-0.16018 1.320104,-0.34232 1.983918,-0.49944 0.593166,-0.11147 1.160245,-0.31061 1.716997,-0.54163 0.548029,-0.25863 1.130186,-0.4347 1.650138,-0.75392 0.560707,-0.24433 1.142846,-0.43782 1.686718,-0.71978 0.449379,-0.20517 0.876864,-0.43452 1.248646,-0.7653 0.424648,-0.29452 0.847307,-0.58876 1.229169,-0.94068 0.407236,-0.34547 0.818322,-0.69084 1.151602,-1.11101 0.366675,-0.47239 0.68712,-0.97823 0.984925,-1.49633 0.32771,-0.64501 0.699727,-1.26646 1.03229,-1.90868 0.358801,-0.64889 0.775578,-1.25935 1.161211,-1.89163 0.490085,-0.7581 0.917504,-1.55034 1.408777,-2.30775 0.45081,-0.66953 0.905404,-1.33751 1.374865,-1.99375 1.069078,-1.06908 2.580981,0.44283 1.511903,1.51191 z"
       inkscape:connector-curvature="0" />
    <path
       style="fill:#6600ff;fill-opacity:1;stroke:none;stroke-width:0.21404923;stroke-linecap:round;stroke-linejoin:miter;stroke-miterlimit:4;stroke-dasharray:none;stroke-opacity:1"
       id="path895"
       d="m 103.0419,261.23287 c -0.31015,1.10977 -0.62032,2.21955 -0.93047,3.3293 -0.46368,1.65911 -0.92738,3.31824 -1.39106,4.97735 -0.53972,1.81954 -1.379929,3.52409 -2.329735,5.15989 -0.960906,1.80566 -2.250872,3.39601 -3.591564,4.92854 -1.245066,1.36569 -2.583568,2.64196 -3.925331,3.91151 -1.314634,1.31983 -2.84131,2.34521 -4.491236,3.19158 -1.811729,0.87778 -3.749193,1.40901 -5.727071,1.73993 -1.834123,0.2605 -3.66915,0.52125 -5.518212,0.64321 -1.349453,0.0613 -2.697355,0.21356 -4.035233,0.40062 -1.122863,0.18509 -2.257728,0.0606 -3.386474,0.0761 -1.228566,-0.038 -2.452093,-0.19109 -3.672595,-0.33394 -1.023032,-0.11559 -2.027511,-0.34152 -3.023928,-0.59435 -0.929015,-0.24438 -1.852867,-0.50786 -2.777692,-0.76757 -0.789548,-0.22195 -1.579104,-0.44383 -2.368992,-0.66458 -0.633064,-0.17712 -1.266187,-0.35411 -1.899306,-0.53105 -0.497627,-0.11871 -0.974629,-0.28898 -1.455804,-0.46126 -4.847025,-1.85352 -2.225735,-8.70826 2.621301,-6.85472 v 0 c 0.222262,0.16665 0.56531,0.12471 0.809909,0.24794 0.634414,0.1773 1.268828,0.35461 1.903185,0.53212 0.791561,0.22161 1.583004,0.44366 2.374337,0.66608 0.867325,0.24365 1.733749,0.49078 2.604872,0.72051 0.682519,0.17474 1.369276,0.33828 2.070656,0.41762 0.930136,0.11029 1.862315,0.22086 2.796279,0.28362 0.803776,0.002 1.609569,0.0746 2.410281,-0.008 1.520522,-0.20465 3.048906,-0.38547 4.581958,-0.45466 1.621305,-0.0866 3.226475,-0.36203 4.835383,-0.56928 1.234939,-0.16244 2.429894,-0.5417 3.565516,-1.04779 1.028183,-0.49351 1.934597,-1.1508 2.739406,-1.96348 1.17651,-1.113 2.351828,-2.22939 3.451361,-3.41928 1.038005,-1.18007 2.049917,-2.39492 2.776595,-3.79868 0.643957,-1.08528 1.211403,-2.22065 1.594365,-3.42632 0.463685,-1.65911 0.92737,-3.31821 1.391054,-4.97732 0.310158,-1.10978 0.620316,-2.21953 0.930471,-3.3293 1.396785,-4.99782 8.464764,-3.02247 7.067984,1.97535 z"
       inkscape:connector-curvature="0" />
    <rect
       style="fill:#93a7ac;fill-opacity:1;stroke:none;stroke-width:0.15990178;stroke-linecap:round;stroke-linejoin:miter;stroke-miterlimit:4;stroke-dasharray:none;stroke-opacity:1"
       id="rect879"
       width="4.3863678"
       height="24.26947"
       x="82.124229"
       y="187.01994"
       transform="rotate(15.614552)" />
    <rect
       style="fill:#93a7ac;fill-opacity:1;stroke:none;stroke-width:0.15990178;stroke-linecap:round;stroke-linejoin:miter;stroke-miterlimit:4;stroke-dasharray:none;stroke-opacity:1"
       id="rect881"
       width="4.4063554"
       height="24.26947"
       x="167.58267"
       y="187.01994"
       transform="rotate(15.614552)" />
    <path
       style="fill:#aaccff;fill-opacity:1;stroke:none;stroke-width:0.15990178;stroke-linecap:round;stroke-linejoin:miter;stroke-miterlimit:4;stroke-dasharray:none;stroke-opacity:1"
       d="m 82.87958,175.42077 a 45.227053,45.227053 0 0 0 -54.125328,26.80195 l 8.448966,2.3613 a 36.504691,36.504691 0 0 1 43.328589,-20.76272 36.504691,36.504691 0 0 1 26.283243,40.21777 l 8.48747,2.37207 A 45.227053,45.227053 0 0 0 82.87958,175.42077 Z"
       id="path861"
       inkscape:connector-curvature="0" />
    <path
       style="fill:#333333;fill-opacity:1;stroke:none;stroke-width:0.26458332;stroke-linecap:round;stroke-linejoin:miter;stroke-miterlimit:4;stroke-dasharray:none;stroke-opacity:1"
       id="path901"
       d="m 27.796029,242.36958 c 0.0061,1.51159 -0.353303,2.99211 -0.648792,4.46514 -0.492951,2.0639 -1.02731,4.12322 -1.667574,6.14677 -0.476367,1.35713 -0.940513,2.71609 -1.582271,4.00521 -0.635049,1.12528 -1.334931,2.21797 -2.030813,3.30791 -0.648445,1.16967 -1.340192,2.31323 -2.020024,3.46463 -0.894453,1.33416 -1.599656,2.76828 -2.238935,4.2368 -0.66357,1.58352 -1.286379,3.18699 -1.789985,4.82895 -0.34473,1.53676 -0.764056,3.05737 -1.06309,4.60391 -0.270471,1.57449 -0.291504,3.17596 -0.318159,4.76893 -0.01785,1.63726 -0.01195,3.27467 -0.0089,4.91199 0.0029,1.40437 0.0041,2.80875 0.0047,4.21313 -0.0293,1.38326 0.168441,2.76014 0.375129,4.12463 0.270097,1.27653 0.542233,2.55017 0.785977,3.83204 0.211286,1.26165 0.589133,2.47767 0.948503,3.70129 0.264848,1.00131 0.68582,1.94695 1.099808,2.89203 0.157524,0.30008 0.324355,0.59462 0.482925,0.89419 0.706031,1.33693 -1.18467,2.33541 -1.890701,0.99848 v 0 c -0.182362,-0.34625 -0.380648,-0.68353 -0.551251,-1.03598 -0.448979,-1.02864 -0.9033,-2.05856 -1.19258,-3.1472 -0.377605,-1.29052 -0.772736,-2.57394 -0.997265,-3.90362 -0.248546,-1.30858 -0.53107,-2.60775 -0.79966,-3.91236 -0.220821,-1.46997 -0.429943,-2.95259 -0.399041,-4.44251 -6.62e-4,-1.40339 -0.0018,-2.80678 -0.0047,-4.21017 -0.0031,-1.65062 -0.009,-3.30133 0.0092,-4.9519 0.02903,-1.71782 0.05771,-3.44434 0.357165,-5.14107 0.31668,-1.62052 0.746852,-3.21677 1.118526,-4.82523 0.530922,-1.71703 1.174822,-3.39739 1.873036,-5.05317 0.674453,-1.54844 1.4185,-3.06182 2.358249,-4.47048 0.692882,-1.1729 1.394771,-2.3395 2.059488,-3.52883 0.65701,-1.02667 1.314148,-2.05816 1.920648,-3.11396 0.598303,-1.18568 1.007284,-2.44722 1.456137,-3.69474 0.620934,-1.94776 1.127395,-3.9341 1.609066,-5.92022 0.267676,-1.33429 0.605214,-2.67566 0.607028,-4.04459 0,-1.5119 2.138155,-1.5119 2.138155,0 z"
       inkscape:connector-curvature="0" />
    <path
       style="fill:#37c837;fill-opacity:1;stroke:none;stroke-width:0.15990178;stroke-linecap:round;stroke-linejoin:miter;stroke-miterlimit:4;stroke-dasharray:none;stroke-opacity:1"
       d="m 47.884582,208.78531 a 20.190649,23.098104 15.614552 0 0 -25.662812,16.81122 20.190649,23.098104 15.614552 0 0 13.228405,27.68016 z m 47.657139,13.31915 -12.434404,44.49139 A 20.190649,23.098104 15.614552 0 0 108.77004,249.78494 20.190649,23.098104 15.614552 0 0 95.541721,222.10446 Z"
       id="path869"
       inkscape:connector-curvature="0" />
    <rect
       style="fill:#e580ff;fill-opacity:1;stroke:none;stroke-width:0.15990178;stroke-linecap:round;stroke-linejoin:miter;stroke-miterlimit:4;stroke-dasharray:none;stroke-opacity:1"
       id="rect883"
       width="9.2069359"
       height="53.303314"
       x="97.711449"
       y="185.28236"
       ry="4.8348255"
       transform="rotate(15.614552)" />
    <rect
       ry="4.8348255"
       y="184.59706"
       x="147.19481"
       height="53.303314"
       width="9.2069359"
       id="rect885"
       style="fill:#e580ff;fill-opacity:1;stroke:none;stroke-width:0.15990178;stroke-linecap:round;stroke-linejoin:miter;stroke-miterlimit:4;stroke-dasharray:none;stroke-opacity:1"
       transform="rotate(15.614552)" />
    <ellipse
       style="fill:#8a6f91;fill-opacity:1;stroke:none;stroke-width:0.23462723;stroke-linecap:round;stroke-linejoin:miter;stroke-miterlimit:4;stroke-dasharray:none;stroke-opacity:1"
       id="path897"
       cx="128.9034"
       cy="258.18509"
       rx="9.4984446"
       ry="6.15804"
       transform="rotate(15.614552)" />
  </g>
  <g
     inkscape:groupmode="layer"
     id="layer3"
     inkscape:label="Music"
     style="display:inline">
    <circle
       style="fill:#db1b1b;fill-opacity:1;stroke:none;stroke-width:0.68453074;stroke-linecap:round;stroke-linejoin:miter;stroke-miterlimit:4;stroke-dasharray:none;stroke-opacity:1"
       id="path906"
       cx="67.73333"
       cy="67.73333"
       r="67.73333" />
    <rect
       style="fill:#dbdb1b;fill-opacity:1;stroke:none;stroke-width:0.23705554;stroke-linecap:round;stroke-linejoin:miter;stroke-miterlimit:4;stroke-dasharray:none;stroke-opacity:1"
       id="rect914"
       width="10.705282"
       height="62.825478"
       x="75.099113"
       y="56.195934"
       ry="6.3139434"
       transform="rotate(-24.326002)" />
    <ellipse
       style="fill:#16af16;fill-opacity:1;stroke:none;stroke-width:0.2177666;stroke-linecap:round;stroke-linejoin:miter;stroke-miterlimit:4;stroke-dasharray:none;stroke-opacity:1"
       id="path908"
       cx="68.417488"
       cy="113.91872"
       rx="17.386906"
       ry="11.778227"
       transform="rotate(-24.326002)" />
    <rect
       style="fill:#1f4292;fill-opacity:1;stroke:none;stroke-width:0.26458332;stroke-linecap:round;stroke-linejoin:miter;stroke-miterlimit:4;stroke-dasharray:none;stroke-opacity:1"
       id="rect923"
       width="9.0871639"
       height="51.850288"
       x="-129.34364"
       y="70.560966"
       ry="4.543582"
       transform="rotate(-96.095229)" />
    <rect
       ry="4.543582"
       y="63.077419"
       x="-109.03116"
       height="51.850288"
       width="9.0871639"
       id="rect925"
       style="fill:#1f4292;fill-opacity:1;stroke:none;stroke-width:0.26458332;stroke-linecap:round;stroke-linejoin:miter;stroke-miterlimit:4;stroke-dasharray:none;stroke-opacity:1"
       transform="rotate(-96.095229)" />
    <rect
       transform="rotate(155.60985)"
       ry="4.543582"
       y="-166.34871"
       x="-66.885818"
       height="51.850288"
       width="9.0871639"
       id="rect929"
       style="fill:#1f4292;fill-opacity:1;stroke:none;stroke-width:0.26458332;stroke-linecap:round;stroke-linejoin:miter;stroke-miterlimit:4;stroke-dasharray:none;stroke-opacity:1" />
    <rect
       ry="6.3139434"
       y="60.508389"
       x="28.407112"
       height="62.825478"
       width="10.705282"
       id="rect916"
       style="fill:#dbdb1b;fill-opacity:1;stroke:none;stroke-width:0.23705554;stroke-linecap:round;stroke-linejoin:miter;stroke-miterlimit:4;stroke-dasharray:none;stroke-opacity:1" />
    <ellipse
       cy="118.50095"
       cx="21.914474"
       id="circle910"
       style="fill:#16af16;fill-opacity:1;stroke:none;stroke-width:0.2177666;stroke-linecap:round;stroke-linejoin:miter;stroke-miterlimit:4;stroke-dasharray:none;stroke-opacity:1"
       rx="17.386906"
       ry="11.778227" />
    <rect
       style="fill:#dbdb1b;fill-opacity:1;stroke:none;stroke-width:0.24239643;stroke-linecap:round;stroke-linejoin:miter;stroke-miterlimit:4;stroke-dasharray:none;stroke-opacity:1"
       id="rect918"
       width="10.679012"
       height="60.006622"
       x="67.73333"
       y="37.730019"
       ry="6.6016555"
       rx="0.11423908" />
    <ellipse
       style="fill:#16af16;fill-opacity:1;stroke:none;stroke-width:0.2177666;stroke-linecap:round;stroke-linejoin:miter;stroke-miterlimit:4;stroke-dasharray:none;stroke-opacity:1"
       id="circle912"
       cx="61.025436"
       cy="97.736641"
       rx="17.386906"
       ry="11.778227" />
    <rect
       style="fill:#dbdb1b;fill-opacity:1;stroke:none;stroke-width:0.21160403;stroke-linecap:round;stroke-linejoin:miter;stroke-miterlimit:4;stroke-dasharray:none;stroke-opacity:1"
       id="rect920"
       width="9.2962427"
       height="57.64666"
       x="68.266647"
       y="-53.696922"
       ry="5.7934728"
       transform="matrix(0.44496877,0.89554609,-0.8486978,0.5288781,0,0)" />
    <rect
       style="fill:#1f4292;fill-opacity:1;stroke:none;stroke-width:0.26458332;stroke-linecap:round;stroke-linejoin:miter;stroke-miterlimit:4;stroke-dasharray:none;stroke-opacity:1"
       id="rect927"
       width="9.0871639"
       height="51.850288"
       x="-43.648941"
       y="-158.66614"
       ry="4.543582"
       transform="rotate(155.60985)" />
    <path
       style="fill:#dbdb1b;fill-opacity:1;stroke:none;stroke-width:0.26458332;stroke-linecap:round;stroke-linejoin:miter;stroke-miterlimit:4;stroke-dasharray:none;stroke-opacity:1"
       id="path951"
       d="m 95.020041,18.353173 c 0.226992,-0.205939 0.394091,-0.444028 0.635634,-0.718425 0.407985,-0.484595 0.912013,-0.86731 1.410681,-1.251298 0.09873,-0.08464 0.09589,-0.08325 0.235184,-0.193399 0.20185,-0.159619 0.314011,-0.244772 0.537221,-0.396808 0.263416,-0.179417 0.398087,-0.226359 0.269932,-0.180178 0.232692,-0.199275 0.637366,-0.499646 0.968774,-0.722209 0.43455,-0.278916 0.899424,-0.504246 1.366873,-0.721405 0.38832,-0.177624 0.77804,-0.352128 1.16737,-0.527483 0.34829,-0.156866 0.69644,-0.31402 1.04454,-0.471297 0.51074,-0.214513 1.03854,-0.427784 1.58454,-0.538911 0.21028,-0.0428 0.4236,-0.06895 0.6354,-0.103435 0.58227,-0.07656 1.16752,-0.06593 1.7517,-0.02641 0.30552,0.0048 0.71684,0.110726 0.95228,0.111754 0.59247,0.02823 1.17514,0.130708 1.75183,0.264647 0.30596,0.06939 0.60374,0.173614 0.91098,0.237351 0.0392,0.0082 -0.0777,-0.02006 -0.11645,-0.03012 0.55435,0.134535 0.63273,0.142822 1.16506,0.288705 0.18306,0.228689 0.68439,0.09307 0.87952,0.323145 0.0831,0.09792 -0.24532,-0.07897 -0.36026,-0.136153 -0.0666,-0.0331 0.14277,0.04134 0.21378,0.06327 0.0717,0.02211 0.14271,0.04593 0.21408,0.06889 0.4474,0.141953 0.87634,0.327579 1.30027,0.520566 0.0517,-0.02974 -0.14968,-0.03719 -0.20456,-0.08779 -0.0329,-0.03043 0.0866,0.02397 0.13051,0.03294 0.0121,0.0024 -0.0228,-0.0089 -0.0342,-0.01331 0.13576,0.03228 0.27152,0.06458 0.40728,0.09686 0.33669,0.06256 0.66776,0.234694 1.01318,0.256584 0.35753,0.09463 0.71955,0.133239 1.08495,0.175007 0.31812,0.01429 0.68557,0.07631 0.99735,0.04794 0.28776,-0.02186 0.592,0.01793 0.87572,-0.05135 0.22677,-0.02606 0.43949,-0.08739 0.65313,-0.162233 0.27386,-0.10188 0.54078,-0.220904 0.80744,-0.33997 0.34702,-0.150729 0.68925,-0.30676 1.01894,-0.490369 0.34502,-0.160579 0.54549,-0.32957 0.66695,-0.424254 -0.01,0.0056 -0.038,0.02497 -0.0299,0.01682 0.20974,-0.213404 0.44598,-0.401008 0.6602,-0.610295 0.28627,-0.292601 0.59047,-0.568867 0.85931,-0.878345 0.12724,-0.177614 0.51554,-0.516295 0.56976,-0.708794 0.23645,-0.379297 0.52556,-0.730707 0.73504,-1.1263851 0.21881,-0.3643669 0.42117,-0.7338335 0.574,-1.0525444 0.03,-0.063918 0.0597,-0.1277785 0.0897,-0.1916826 0.0543,-0.1085372 0.11139,-0.2157002 0.1629,-0.3255924 0.0133,-0.0284 -0.0569,0.1110793 -0.0483,0.080907 0.0219,-0.076621 0.0592,-0.14805 0.0886,-0.2221223 0.09,-0.2262353 0.0672,-0.1390081 0.0955,-0.2608447 0.0661,-0.2349192 0.13818,-0.5009219 0.17127,-0.7237983 0.0192,-0.2947153 0.11259,-0.591919 0.10437,-0.8882919 0.0313,-0.4675199 0.13594,-0.9204743 0.25464,-1.3719453 0.003,-0.01292 -0.0102,0.025107 -0.0134,0.03827 -0.0217,0.090459 -0.0405,0.1814872 -0.0609,0.2722452 0.77445,-5.33019625 8.31247,-4.2349715 7.53804,1.0952192 v 0 c -0.0472,0.2526367 -0.0876,0.5419951 -0.17072,0.7925794 -0.0186,0.055814 0.0289,-0.1140668 0.0392,-0.1719496 0.13177,-0.7425109 -0.0462,0.2653937 0.0103,-0.1027773 -0.0416,0.508816 -0.10001,1.0160508 -0.17698,1.5207982 -0.11584,0.671459 -0.26935,1.3372496 -0.48196,1.9853039 -0.21177,0.602384 -0.44586,1.197059 -0.73416,1.767443 -0.25878,0.539602 -0.54563,1.062671 -0.8512,1.577141 -0.29927,0.506751 -0.62999,0.992456 -0.95486,1.482857 -0.39376,0.581613 -0.81983,1.140193 -1.30075,1.653491 -0.39706,0.432165 -0.80943,0.848974 -1.22949,1.258679 -0.39713,0.37755 -0.80103,0.748578 -1.21925,1.102732 -0.52369,0.407749 -1.07293,0.77717 -1.66356,1.081972 -0.52093,0.286579 -1.05458,0.545074 -1.60067,0.780186 -0.49763,0.221779 -0.99829,0.438172 -1.51443,0.613981 -0.66023,0.214796 -1.33179,0.38314 -2.02024,0.479019 -0.64715,0.08107 -1.29704,0.130728 -1.94991,0.120983 -0.60753,-0.01032 -1.21664,-0.02847 -1.82077,-0.09754 -0.526,-0.06077 -1.05123,-0.124273 -1.56737,-0.246113 -0.51744,-0.09899 -1.03319,-0.21254 -1.53632,-0.370006 0.16013,-0.0073 0.004,0.0016 -0.38052,-0.08545 -0.32247,-0.07308 -0.64224,-0.170131 -0.94926,-0.293009 -0.12392,-0.04957 -0.24592,-0.103725 -0.36887,-0.155588 0.20617,0.07865 -0.0711,-0.02624 -0.20593,-0.08927 -0.0377,-0.01765 0.15455,0.06137 0.11771,0.04191 -0.0946,-0.04998 -0.20698,-0.06627 -0.3043,-0.110514 -0.2341,-0.0821 -0.47361,-0.159907 -0.70661,-0.237088 -0.042,-0.0139 0.16676,0.05876 0.1252,0.04364 -0.26923,-0.09807 -0.34924,-0.117304 -0.0466,-0.02908 -0.10221,-0.03057 -0.94095,-0.224899 -0.44896,-0.125637 -0.44021,-0.08842 -0.82981,-0.186472 -1.24344,-0.30096 -0.0275,-0.0078 -0.0536,-0.02091 -0.0817,-0.02595 -0.059,-0.01055 -0.21885,0.01652 -0.17772,-0.02706 0.0443,-0.04692 0.25748,0.01509 0.19315,0.01071 -0.42764,-0.02903 -0.17464,-0.0057 -0.39884,-0.0274 -0.30056,-0.02181 -0.78926,-0.06821 -0.98258,-0.113785 -0.6437,-0.04489 0.34183,-0.0056 -0.25434,-0.01236 -0.0182,-2.37e-4 0.0359,-0.0064 0.0538,-0.0097 -0.045,0.0047 -0.09,0.0093 -0.1349,0.01392 0.0927,-0.02041 0.18595,-0.03829 0.27802,-0.06127 0.0178,-0.0045 0.0686,-0.02551 0.0508,-0.02078 -0.0514,0.01371 -0.10139,0.03215 -0.15221,0.0478 -0.024,0.0073 -0.0884,0.04054 -0.0722,0.02127 0.009,-0.01093 0.38381,-0.177679 -0.0807,0.03233 -0.35078,0.158475 -0.7016,0.316846 -1.05255,0.474915 -0.36389,0.163894 -0.72806,0.32716 -1.09122,0.492691 -0.1413,0.06531 -0.28205,0.13245 -0.42247,0.199216 0.10943,-0.09673 -0.2434,0.195532 -0.52702,0.413655 -0.0568,0.0437 -0.11596,0.08429 -0.17394,0.126427 -0.28529,0.19712 -0.56966,0.373395 -0.8268,0.611213 -0.12453,0.09431 -0.24401,0.195291 -0.37039,0.287092 -0.0669,0.04855 0.0718,-0.05471 0.13117,-0.133729 0.0389,-0.05189 -0.38352,0.394189 -0.13561,0.139836 -0.12341,0.108031 -0.30205,0.362079 -0.38207,0.4551 -0.15121,0.175782 -0.289,0.315313 -0.45326,0.48058 -0.008,0.0084 0.0153,-0.01798 0.0229,-0.02699 -3.732915,3.882789 -9.22401,-1.396352 -5.491089,-5.279144 z"
       inkscape:connector-curvature="0" />
  </g>
  <g
     inkscape:groupmode="layer"
     id="layer4"
     inkscape:label="Camera"
     style="display:none"
     sodipodi:insensitive="true">
    <circle
       style="fill:#dbba1b;fill-opacity:1;stroke:none;stroke-width:0.5353595;stroke-linecap:round;stroke-linejoin:miter;stroke-miterlimit:4;stroke-dasharray:none;stroke-opacity:1"
       id="path4469"
       cx="67.73333"
       cy="67.73333"
       r="67.73333" />
    <rect
       style="fill:#108383;fill-opacity:1;stroke:none;stroke-width:0.30824685;stroke-linecap:round;stroke-linejoin:miter;stroke-miterlimit:4;stroke-dasharray:none;stroke-opacity:1"
       id="rect4485"
       width="35.808281"
       height="14.167625"
       x="1.3139775"
       y="52.98925"
       ry="5.8282089"
       transform="rotate(-14.005037)" />
    <rect
       style="fill:#af166d;fill-opacity:1;stroke:none;stroke-width:0.30824685;stroke-linecap:round;stroke-linejoin:miter;stroke-miterlimit:4;stroke-dasharray:none;stroke-opacity:1"
       id="rect4471"
       width="121.6072"
       height="76.140182"
       x="-16.902327"
       y="60.294552"
       ry="16.107708"
       transform="rotate(-14.005037)" />
    <rect
       style="fill:#d76faa;fill-opacity:1;stroke:none;stroke-width:0.30824685;stroke-linecap:round;stroke-linejoin:miter;stroke-miterlimit:4;stroke-dasharray:none;stroke-opacity:1"
       id="rect4473"
       width="37.598499"
       height="11.656439"
       x="58.117912"
       y="63.836761"
       ry="5.8282194"
       transform="rotate(-14.005037)" />
    <circle
       style="fill:#108383;fill-opacity:1;stroke:none;stroke-width:0.30092037;stroke-linecap:round;stroke-linejoin:miter;stroke-miterlimit:4;stroke-dasharray:none;stroke-opacity:1"
       id="path4477"
       cx="43.901272"
       cy="105.21492"
       r="25.578232"
       transform="rotate(-14.005037)" />
    <circle
       r="18.88364"
       cy="105.21492"
       cx="43.901272"
       id="circle4479"
       style="fill:#3d2296;fill-opacity:1;stroke:none;stroke-width:0.22216047;stroke-linecap:round;stroke-linejoin:miter;stroke-miterlimit:4;stroke-dasharray:none;stroke-opacity:1"
       transform="rotate(-14.005037)" />
    <ellipse
       style="fill:#8974cb;fill-opacity:1;stroke:none;stroke-width:0.3693653;stroke-linecap:round;stroke-linejoin:miter;stroke-miterlimit:4;stroke-dasharray:none;stroke-opacity:1"
       id="path4481"
       cx="99.368645"
       cy="46.064407"
       rx="6.3412085"
       ry="3.0451639"
       transform="rotate(23.137569)" />
    <circle
       style="fill:#d76faa;fill-opacity:1;stroke:none;stroke-width:0.30824685;stroke-linecap:round;stroke-linejoin:miter;stroke-miterlimit:4;stroke-dasharray:none;stroke-opacity:1"
       id="path4483"
       cx="9.4989471"
       cy="69.664978"
       r="4.623703"
       transform="rotate(-14.005037)" />
  </g>
  <g
     inkscape:groupmode="layer"
     id="layer2"
     inkscape:label="Call"
     style="display:none"
     sodipodi:insensitive="true">
    <circle
       style="fill:#16af16;fill-opacity:1;stroke:none;stroke-width:0.84045845;stroke-linecap:round;stroke-linejoin:miter;stroke-miterlimit:4;stroke-dasharray:none;stroke-opacity:1"
       id="path978"
       cx="67.73333"
       cy="67.73333"
       r="67.73333" />
    <path
       style="fill:#db1b1b;fill-opacity:1;stroke:none;stroke-width:0.26458332;stroke-linecap:round;stroke-linejoin:miter;stroke-miterlimit:4;stroke-dasharray:none;stroke-opacity:1"
       id="path4434"
       d="m 115.05286,49.93349 c 0.52816,0.514491 1.14109,0.930434 1.70084,1.412143 0.717,0.643717 1.50082,1.198351 2.21323,1.847543 0.87727,0.708596 1.47729,1.668049 2.18347,2.528921 0.65,0.813302 1.24184,1.668972 1.85138,2.512005 0.71868,0.940125 1.29346,1.95793 1.76277,3.041809 0.40149,0.976689 0.6623,2.001589 0.9185,3.023519 0.221,1.157431 0.26792,2.329623 0.17864,3.501771 -0.0674,1.43999 -0.54142,2.54994 -1.44323,3.659968 -1.23772,1.299333 -2.6893,1.722193 -4.43313,1.751855 -1.60147,-0.08526 -2.96656,-0.758294 -4.15261,-1.797955 -0.94786,-0.852272 -1.53783,-1.91861 -1.91317,-3.118792 -0.2896,-1.820439 0.34756,-3.098995 1.68381,-4.280537 0.95279,-0.706301 2.1002,-1.020232 3.22937,-1.317011 1.23114,-0.346399 2.50968,-0.377332 3.77549,-0.27957 1.41487,0.165416 2.48671,0.596318 3.64642,1.409473 1.011,0.784907 1.81857,1.724586 2.44362,2.836366 0.47108,0.950658 0.74816,1.976862 1.00762,3.000584 0.18664,0.759705 0.36355,1.521753 0.54435,2.282859 0.25414,0.852166 0.35602,1.724798 0.41788,2.608352 -0.0408,1.048967 0.0583,2.090716 0.0277,3.139186 -0.0274,1.080815 -0.071,2.146638 -0.24113,3.215611 -0.15583,1.008398 -0.48249,1.96222 -0.87429,2.899802 -0.4828,1.25767 -1.40421,2.124729 -2.55394,2.770615 -1.067,0.552907 -2.20453,0.73976 -3.39253,0.698906 -1.12258,-0.09615 -2.16293,-0.502484 -3.13,-1.057184 -1.18437,-0.800082 -1.98178,-1.941809 -2.58606,-3.212612 -0.69431,-1.509699 -0.54057,-2.793149 0.24569,-4.205891 0.79733,-1.11625 1.97559,-1.61191 3.26836,-1.889825 1.11799,-0.165635 2.23993,-0.122057 3.35081,0.06028 1.15304,0.165775 2.18834,0.612261 3.14865,1.253964 0.72912,0.633797 1.4867,1.229378 2.18034,1.902811 0.69317,0.769261 1.25555,1.647 1.72226,2.568784 0.39289,0.830339 0.63517,1.718028 0.86444,2.604075 0.29341,1.033889 0.50292,2.064551 0.54555,3.139224 0.0844,1.236598 -0.30581,2.390734 -0.61797,3.563021 -0.22436,0.854117 -0.47544,1.699549 -0.74436,2.540915 -0.28336,0.94529 -0.86747,1.748883 -1.3291,2.607746 -0.43168,0.689987 -0.93519,1.332669 -1.4325,1.976447 -0.59901,0.935322 -1.48675,1.612362 -2.43053,2.165342 -0.92616,0.4949 -1.93483,0.791 -2.9447,1.05853 -1.8692,0.37692 -3.07815,-0.14821 -4.40141,-1.45491 -0.78978,-0.90083 -1.19887,-2.010152 -1.52705,-3.141529 -0.47305,-1.41929 -0.1161,-2.571227 0.72521,-3.734253 0.86416,-0.981714 2.04892,-1.394867 3.29103,-1.651152 1.28266,-0.159254 2.5282,0.112422 3.75455,0.456676 0.94333,0.248304 1.83512,0.631209 2.6633,1.143211 0.9697,0.6172 1.52154,1.597239 2.07688,2.563771 0.47899,0.840425 0.78281,1.758417 1.04773,2.683813 0.28507,1.222923 0.1976,2.481643 0.0826,3.718783 -0.13848,1.02999 -0.41625,2.03709 -0.68994,3.03819 -0.32096,0.90688 -0.6316,1.81077 -1.08309,2.66247 -0.59688,0.97483 -1.46371,1.74841 -2.36193,2.44047 -0.9944,0.73914 -2.22268,0.95697 -3.3631,1.36327 -1.02164,0.40149 -2.06109,0.75154 -3.11294,1.06438 -1.05876,0.338 -2.11716,0.56944 -3.22874,0.60381 -1.08682,-1.9e-4 -2.14309,-0.2457 -3.1725,-0.5718 -1.28157,-0.45889 -2.19097,-1.346 -2.88257,-2.49036 -0.85195,-1.70486 -0.65714,-2.85104 0.36117,-4.39973 0.83959,-1.01373 2.01174,-1.4705 3.23452,-1.83115 1.06217,-0.3413 2.14532,-0.49939 3.25793,-0.49806 1.43674,0.06 2.69712,0.66441 3.86241,1.45856 1.05746,0.78903 1.6588,1.90367 2.0886,3.11924 0.36741,1.00598 0.50141,2.04125 0.47471,3.10618 -0.16844,1.42813 -0.71884,2.51803 -1.60036,3.63026 -0.89026,0.91887 -1.93386,1.62909 -3.08305,2.17824 -0.96954,0.49765 -1.93648,0.99708 -2.94057,1.42301 -1.06524,0.43663 -2.17333,0.7498 -3.28591,1.03809 -1.12821,0.28359 -2.26011,0.55223 -3.39132,0.82348 -1.36847,0.40038 -2.78634,0.38112 -4.19131,0.26299 -1.12506,-0.16932 -2.20368,-0.57445 -3.24277,-1.02697 -0.70437,-0.34031 -1.42138,-0.65007 -2.13472,-0.96974 -0.79025,-0.41434 -1.580388,-0.81833 -2.325048,-1.30991 -0.87657,-0.65229 -1.56768,-1.49164 -2.19269,-2.37798 -0.65854,-0.79148 -1.17201,-1.68409 -1.67548,-2.57797 -0.50834,-0.90513 -0.85477,-1.88271 -1.14925,-2.87415 -0.21836,-0.77373 -0.402527,-1.55652 -0.589621,-2.33822 -0.746602,-3.11913 3.664551,-4.17495 4.411201,-1.05548 v 0 c 0.16872,0.70515 0.3345,1.41132 0.52868,2.11002 0.19502,0.66643 0.41503,1.32757 0.75384,1.93722 0.4269,0.76299 0.86323,1.51932 1.430718,2.18957 0.33262,0.47449 0.67352,0.94478 1.13329,1.30669 0.46678,0.27406 1.04516,0.58556 1.56897,0.86943 0.68776,0.33599 1.40985,0.60954 2.09525,0.95183 0.56668,0.27022 1.17568,0.45644 1.77191,0.64659 0.9247,0.0797 1.84967,0.13635 2.74926,-0.15422 1.10515,-0.26495 2.2108,-0.52797 3.3131,-0.80458 0.90085,-0.23257 1.7997,-0.47977 2.66408,-0.82818 0.95289,-0.39548 1.85701,-0.8915 2.77927,-1.35148 0.5809,-0.25802 1.08474,-0.61507 1.56607,-1.0293 0.31181,-0.14869 0.3381,-0.63928 0.50606,-0.89013 0.0836,-0.48286 -0.10663,-0.94689 -0.23227,-1.40684 -0.10168,-0.31142 -0.1909,-0.64835 -0.41852,-0.89391 -0.39714,-0.31229 -0.84829,-0.56368 -1.35459,-0.62819 -0.64046,-0.0807 -1.26468,0.17734 -1.8784,0.3181 -0.0704,0.0201 -0.95489,0.38273 -0.86677,0.18658 0.0565,-0.2376 -0.15965,-1.00441 -0.0608,-0.56136 0.0803,0.2043 0.12953,0.30959 0.34089,0.42606 0.57203,0.19227 1.15698,0.34199 1.76405,0.35168 0.65725,0.0956 1.31281,-0.31512 1.95074,-0.41637 0.98673,-0.2921 1.95878,-0.62671 2.91738,-1.0015 0.70681,-0.24083 1.44337,-0.41148 2.12844,-0.70698 0.40173,-0.27747 0.7502,-0.63525 1.0965,-0.9754 0.30814,-0.53625 0.45138,-1.13923 0.69646,-1.70308 0.20723,-0.74464 0.40819,-1.49533 0.54672,-2.2554 0.0641,-0.68325 0.13169,-1.37136 0.0704,-2.0573 -0.16082,-0.571965 -0.33209,-1.145461 -0.62028,-1.668715 -0.18745,-0.328413 -0.3625,-0.672105 -0.56396,-0.984037 -0.45658,-0.303613 -0.97994,-0.479184 -1.50869,-0.622866 -0.5468,-0.171492 -1.132,-0.323467 -1.70018,-0.34449 -0.1942,-0.0029 -0.75802,0.315175 -0.52059,-0.0013 0.0961,-0.280418 -0.049,0.16101 -0.0406,0.03223 0.036,-0.550029 0.14922,-0.275129 0.0547,-0.708393 -0.002,-0.0088 -0.0147,0.01177 -0.022,0.01705 0.0284,0.10902 0.0568,0.218049 0.0852,0.327079 0.12355,0.436862 0.24921,0.877308 0.46539,1.279291 0.0974,0.21419 -0.38245,0.126454 -0.0543,0.183403 0.6349,-0.166975 1.27381,-0.337286 1.86879,-0.620629 0.46666,-0.239019 0.83228,-0.566699 1.10048,-1.023518 0.36222,-0.439982 0.68566,-0.912721 1.02786,-1.367148 0.33381,-0.594222 0.72986,-1.16296 0.97885,-1.797575 0.25037,-0.775742 0.48159,-1.555287 0.68611,-2.344264 0.20935,-0.760115 0.51236,-1.487128 0.45989,-2.293838 0.0436,-0.713227 -0.27526,-1.391772 -0.40218,-2.084869 -0.14994,-0.582272 -0.2983,-1.16865 -0.53612,-1.722641 -0.22929,-0.483618 -0.53467,-0.921664 -0.84471,-1.355649 -0.50394,-0.514206 -1.10138,-0.921272 -1.61132,-1.426594 -0.35614,-0.333828 -0.87605,-0.39642 -1.33419,-0.494508 -0.58751,-0.130486 -1.19101,-0.106795 -1.78723,-0.05309 -0.24667,0.03804 -0.4113,0.200873 -0.18267,-0.178674 0.0316,-0.136989 -0.19587,-0.908226 0.0238,-0.101797 0.20712,0.477029 0.4637,0.925145 0.86641,1.266638 0.18937,0.282165 0.76214,0.297559 1.07589,0.385209 0.24288,0.01279 0.62012,-0.0202 0.92143,-0.181421 0.28549,-0.10669 0.39454,-0.17101 0.50137,-0.52356 0.25663,-0.604869 0.48375,-1.19868 0.57625,-1.855898 0.14194,-0.888205 0.16034,-1.772712 0.18777,-2.672709 0.0478,-0.884533 -0.0986,-1.766381 -0.0199,-2.650951 -0.0449,-0.641369 -0.10147,-1.260174 -0.30639,-1.877875 -0.17557,-0.739466 -0.34823,-1.479638 -0.52866,-2.217938 -0.16858,-0.66792 -0.33761,-1.339867 -0.61045,-1.974496 -0.2533,-0.578161 -0.75054,-0.968065 -1.21085,-1.380922 -0.009,-0.228261 -1.13147,-0.454291 -1.28024,-0.485235 -0.74273,-0.08521 -1.5029,-0.04856 -2.22553,0.149436 -0.50896,0.132639 -1.01277,0.279362 -1.51195,0.444502 -0.0606,-0.119764 -0.0941,-0.255681 -0.16191,-0.382312 -0.15173,-0.06635 0.11547,0.327206 0.12641,0.34651 0.1282,0.226183 0.29859,0.420692 0.48746,0.598457 0.25961,0.350013 0.71028,0.495775 1.11883,0.583955 0.33845,0.05096 0.68323,0.02883 0.95462,-0.191857 0.34561,-0.234526 0.29495,-0.675829 0.34864,-1.084991 0.0797,-0.669232 0.005,-1.331906 -0.0604,-1.999267 -0.19793,-0.789414 -0.39084,-1.583609 -0.68925,-2.342527 -0.32862,-0.784301 -0.75288,-1.500965 -1.27379,-2.175582 -0.56024,-0.781346 -1.10945,-1.570098 -1.708,-2.323346 -0.55205,-0.697023 -1.03107,-1.459168 -1.72073,-2.033055 -0.67055,-0.631644 -1.45319,-1.127252 -2.12055,-1.764381 -0.71949,-0.645117 -1.56683,-1.148439 -2.18513,-1.9047 -2.0679,-2.451563 1.39913,-5.37601 3.46703,-2.924451 z"
       inkscape:connector-curvature="0" />
    <path
       style="fill:#1f4292;fill-opacity:1;stroke:none;stroke-width:0.22729129;stroke-linecap:round;stroke-linejoin:miter;stroke-miterlimit:4;stroke-dasharray:none;stroke-opacity:1"
       d="M 35.30855,65.809278 C 31.129837,66.795242 28.768617,78.42854 23.083083,84.372472 17.686651,90.014147 8.9550107,93.085647 4.0224656,103.45282 a 17.858602,17.858602 0 0 0 -1.5740783,12.38737 17.858602,17.858602 0 0 0 21.4821367,13.28003 l 14.511742,-3.42403 c -0.686439,-2.90926 0.953852,-5.76872 3.677416,-6.41134 l 40.782113,-9.6225 c 2.723566,-0.64263 5.468632,1.18211 6.155071,4.09137 l 14.511744,-3.42403 A 17.858602,17.858602 0 0 0 116.84907,88.847448 17.858602,17.858602 0 0 0 111.7126,79.962312 C 111.615,79.861458 111.51281,79.761216 111.40097,79.662277 101.89122,71.249185 92.111694,72.687663 84.368806,69.912158 76.625928,67.136648 69.313524,57.785834 65.134809,58.771798 l -11.61734,2.741101 -6.591574,1.555277 z"
       id="path980"
       inkscape:connector-curvature="0" />
    <ellipse
       style="fill:#dbdb1b;fill-opacity:1;stroke:none;stroke-width:0.30227399;stroke-linecap:round;stroke-linejoin:miter;stroke-miterlimit:4;stroke-dasharray:none;stroke-opacity:1"
       id="path4342"
       cx="34.552025"
       cy="101.66192"
       rx="29.618256"
       ry="14.351113"
       transform="rotate(-13.276077)" />
    <ellipse
       ry="8.1519442"
       rx="16.824224"
       cy="101.66192"
       cx="34.552025"
       id="ellipse4344"
       style="fill:#1f4292;fill-opacity:1;stroke:none;stroke-width:0.1717024;stroke-linecap:round;stroke-linejoin:miter;stroke-miterlimit:4;stroke-dasharray:none;stroke-opacity:1"
       transform="rotate(-13.276077)" />
    <ellipse
       style="fill:#1f4292;fill-opacity:1;stroke:none;stroke-width:0.15937573;stroke-linecap:round;stroke-linejoin:miter;stroke-miterlimit:4;stroke-dasharray:none;stroke-opacity:1"
       id="path4375"
       cx="12.188038"
       cy="101.51964"
       rx="4.3428874"
       ry="2.1352925"
       transform="rotate(-13.276077)" />
    <ellipse
       cy="101.51964"
       cx="57.321594"
       id="circle4377"
       style="fill:#1f4292;fill-opacity:1;stroke:none;stroke-width:0.15937573;stroke-linecap:round;stroke-linejoin:miter;stroke-miterlimit:4;stroke-dasharray:none;stroke-opacity:1"
       rx="4.3428874"
       ry="2.1352925"
       transform="rotate(-13.276077)" />
    <ellipse
       cy="106.02215"
       cx="99.720009"
       id="circle4379"
       style="fill:#1f4292;fill-opacity:1;stroke:none;stroke-width:0.17476705;stroke-linecap:round;stroke-linejoin:miter;stroke-miterlimit:4;stroke-dasharray:none;stroke-opacity:1"
       transform="matrix(0.99899299,0.04486663,-0.59209701,0.80586669,0,0)"
       rx="3.909651"
       ry="2.8521523" />
    <ellipse
       style="fill:#1f4292;fill-opacity:1;stroke:none;stroke-width:0.17476705;stroke-linecap:round;stroke-linejoin:miter;stroke-miterlimit:4;stroke-dasharray:none;stroke-opacity:1"
       id="circle4381"
       cx="140.35112"
       cy="106.02215"
       transform="matrix(0.99899299,0.04486663,-0.59209701,0.80586669,0,0)"
       rx="3.909651"
       ry="2.8521523" />
    <ellipse
       transform="matrix(0.88987954,0.45619557,-0.8735711,0.48669655,0,0)"
       style="fill:#1f4292;fill-opacity:1;stroke:none;stroke-width:0.17476705;stroke-linecap:round;stroke-linejoin:miter;stroke-miterlimit:4;stroke-dasharray:none;stroke-opacity:1"
       id="circle4383"
       cx="114.02652"
       cy="65.843613"
       rx="2.8521523"
       ry="3.909651" />
    <ellipse
       transform="matrix(0.88987954,0.45619557,-0.8735711,0.48669655,0,0)"
       cy="65.843613"
       cx="143.66759"
       id="circle4385"
       style="fill:#1f4292;fill-opacity:1;stroke:none;stroke-width:0.17476705;stroke-linecap:round;stroke-linejoin:miter;stroke-miterlimit:4;stroke-dasharray:none;stroke-opacity:1"
       rx="2.8521523"
       ry="3.909651" />
    <ellipse
       cy="-34.754807"
       cx="90.424103"
       id="circle4387"
       style="fill:#1f4292;fill-opacity:1;stroke:none;stroke-width:0.15937573;stroke-linecap:round;stroke-linejoin:miter;stroke-miterlimit:4;stroke-dasharray:none;stroke-opacity:1"
       transform="rotate(76.723924)"
       rx="2.1352925"
       ry="4.3428874" />
    <ellipse
       style="fill:#1f4292;fill-opacity:1;stroke:none;stroke-width:0.15937573;stroke-linecap:round;stroke-linejoin:miter;stroke-miterlimit:4;stroke-dasharray:none;stroke-opacity:1"
       id="circle4389"
       cx="112.61517"
       cy="-34.754807"
       transform="rotate(76.723924)"
       rx="2.1352925"
       ry="4.3428874" />
    <ellipse
       transform="matrix(-0.59209701,0.80586669,-0.99899299,-0.04486663,0,0)"
       cy="-120.03555"
       cx="120.84268"
       id="circle4393"
       style="fill:#1f4292;fill-opacity:1;stroke:none;stroke-width:0.17476705;stroke-linecap:round;stroke-linejoin:miter;stroke-miterlimit:4;stroke-dasharray:none;stroke-opacity:1"
       rx="2.8521523"
       ry="3.909651" />
    <ellipse
       style="fill:#1f4292;fill-opacity:1;stroke:none;stroke-width:0.17476705;stroke-linecap:round;stroke-linejoin:miter;stroke-miterlimit:4;stroke-dasharray:none;stroke-opacity:1"
       id="circle4397"
       cx="86.15918"
       cy="-128.84705"
       transform="matrix(-0.8735711,0.48669655,-0.88987954,-0.45619557,0,0)"
       rx="3.909651"
       ry="2.8521523" />
    <g
       id="g4409"
       transform="matrix(1.0818033,0.30888806,-0.22654875,0.79343036,292.21087,94.021799)"
       style="fill:#1f4292;fill-opacity:1">
      <ellipse
         ry="10.772322"
         rx="16.441963"
         cy="10.545536"
         cx="-248.89732"
         id="path4399"
         style="fill:#1f4292;fill-opacity:1;stroke:none;stroke-width:0.26458332;stroke-linecap:round;stroke-linejoin:miter;stroke-miterlimit:4;stroke-dasharray:none;stroke-opacity:1" />
      <ellipse
         style="fill:#1f4292;fill-opacity:1;stroke:none;stroke-width:0.26458332;stroke-linecap:round;stroke-linejoin:miter;stroke-miterlimit:4;stroke-dasharray:none;stroke-opacity:1"
         id="ellipse4401"
         cx="-171.79018"
         cy="10.545536"
         rx="16.441963"
         ry="10.772322" />
      <path
         sodipodi:nodetypes="ssccccs"
         inkscape:connector-curvature="0"
         id="rect4403"
         d="m -256.07885,-10.81012 c 30.6312,-14.643375 58.60956,-13.620612 89.20238,0 14.07194,6.2651421 11.52826,21.355656 11.52826,21.355656 h -32.88393 c 0,-8.2293071 -44.22322,-8.4720971 -44.22322,0 l -32.8839,-2e-6 c 0,0 -2.72294,-15.6269632 9.26041,-21.355654 z"
         style="fill:#1f4292;fill-opacity:1;stroke:none;stroke-width:0.26458332;stroke-linecap:round;stroke-linejoin:miter;stroke-miterlimit:4;stroke-dasharray:none;stroke-opacity:1" />
    </g>
  </g>
</svg>
