<?xml version="1.0" encoding="UTF-8" standalone="no"?>
<!-- Created with Inkscape (http://www.inkscape.org/) -->

<svg
   xmlns:dc="http://purl.org/dc/elements/1.1/"
   xmlns:cc="http://creativecommons.org/ns#"
   xmlns:rdf="http://www.w3.org/1999/02/22-rdf-syntax-ns#"
   xmlns:svg="http://www.w3.org/2000/svg"
   xmlns="http://www.w3.org/2000/svg"
   xmlns:sodipodi="http://sodipodi.sourceforge.net/DTD/sodipodi-0.dtd"
   xmlns:inkscape="http://www.inkscape.org/namespaces/inkscape"
   width="512"
   height="512"
   viewBox="0 0 135.46666 135.46667"
   version="1.1"
   id="svg8"
   sodipodi:docname="MusicIcon.svg"
   inkscape:export-filename="E:\Work\XamarinTestProject\XamarinTestProject\XamarinTestProject\Images\phoneIcon.png"
   inkscape:export-xdpi="96"
   inkscape:export-ydpi="96"
   inkscape:version="0.92.2 (5c3e80d, 2017-08-06)">
  <defs
     id="defs2" />
  <sodipodi:namedview
     id="base"
     pagecolor="#ffffff"
     bordercolor="#666666"
     borderopacity="1.0"
     inkscape:pageopacity="0.0"
     inkscape:pageshadow="2"
     inkscape:zoom="0.35"
     inkscape:cx="-198.92779"
     inkscape:cy="145.91177"
     inkscape:document-units="mm"
     inkscape:current-layer="layer2"
     showgrid="false"
     units="px"
     borderlayer="false"
     inkscape:pagecheckerboard="true"
     inkscape:snap-path-clip="true"
     inkscape:snap-path-mask="true"
     objecttolerance="20"
     gridtolerance="10000"
     inkscape:snap-perpendicular="true"
     inkscape:snap-tangential="true"
     inkscape:object-paths="true"
     inkscape:snap-intersection-paths="true"
     inkscape:snap-smooth-nodes="true"
     inkscape:snap-midpoints="true"
     inkscape:snap-object-midpoints="true"
     inkscape:snap-center="true"
     inkscape:snap-text-baseline="true"
     inkscape:snap-page="true"
     inkscape:snap-bbox="true"
     inkscape:bbox-nodes="true"
     inkscape:bbox-paths="true"
     inkscape:snap-bbox-edge-midpoints="true"
     inkscape:snap-bbox-midpoints="true"
     inkscape:window-width="1304"
     inkscape:window-height="745"
     inkscape:window-x="54"
     inkscape:window-y="-8"
     inkscape:window-maximized="1" />
  <metadata
     id="metadata5">
    <rdf:RDF>
      <cc:Work
         rdf:about="">
        <dc:format>image/svg+xml</dc:format>
        <dc:type
           rdf:resource="http://purl.org/dc/dcmitype/StillImage" />
        <dc:title></dc:title>
      </cc:Work>
    </rdf:RDF>
  </metadata>
  <g
     inkscape:label="Music"
     inkscape:groupmode="layer"
     id="layer1"
     transform="translate(0,-161.53332)"
     style="display:none"
     sodipodi:insensitive="true">
    <path
       style="fill:#a91717;fill-opacity:1;stroke:none;stroke-width:2.16568732;stroke-linecap:round;stroke-linejoin:miter;stroke-miterlimit:4;stroke-dasharray:none;stroke-opacity:1"
       d="M 256,0 A 255.99999,255.99999 0 0 0 228.82812,1.5234375 V 246.98047 A 103.20935,103.20935 0 0 1 125.61914,350.18945 103.20935,103.20935 0 0 1 22.410156,246.98047 103.20935,103.20935 0 0 1 125.61914,143.76953 a 103.20935,103.20935 0 0 1 36.41797,6.77149 V 18.117188 A 255.99999,255.99999 0 0 0 0,256 255.99999,255.99999 0 0 0 256,512 255.99999,255.99999 0 0 0 512,256 255.99999,255.99999 0 0 0 445.24609,84.021484 V 335.58594 A 103.20935,103.20935 0 0 1 342.03711,438.79492 103.20935,103.20935 0 0 1 238.82812,335.58594 103.20935,103.20935 0 0 1 342.03711,232.37695 103.20935,103.20935 0 0 1 381.4668,240.24609 V 33.015625 A 255.99999,255.99999 0 0 0 256,0 Z"
       transform="matrix(0.26458333,0,0,0.26458333,0,161.53332)"
       id="path815"
       inkscape:connector-curvature="0" />
    <circle
       r="67.73333"
       cy="229.26666"
       cx="-203.2"
       id="circle849"
       style="fill:#701010;fill-opacity:1;stroke:none;stroke-width:0.57300478;stroke-linecap:round;stroke-linejoin:miter;stroke-miterlimit:4;stroke-dasharray:none;stroke-opacity:1" />
    <circle
       r="27.307474"
       cy="226.88004"
       cx="-237.69656"
       id="circle851"
       style="fill:#161070;fill-opacity:1;stroke:none;stroke-width:0.5551151;stroke-linecap:round;stroke-linejoin:miter;stroke-miterlimit:4;stroke-dasharray:none;stroke-opacity:1" />
    <circle
       style="fill:#161070;fill-opacity:1;stroke:none;stroke-width:0.5551151;stroke-linecap:round;stroke-linejoin:miter;stroke-miterlimit:4;stroke-dasharray:none;stroke-opacity:1"
       id="circle853"
       cx="-180.43602"
       cy="250.32378"
       r="27.307474" />
    <rect
       y="144.14642"
       x="-228.06096"
       height="82.733627"
       width="17.671867"
       id="rect855"
       style="fill:#161070;fill-opacity:1;stroke:none;stroke-width:0.31309801;stroke-linecap:round;stroke-linejoin:miter;stroke-miterlimit:4;stroke-dasharray:none;stroke-opacity:1" />
    <rect
       y="161.53333"
       x="-170.00362"
       height="88.790451"
       width="16.875061"
       id="rect857"
       style="fill:#161070;fill-opacity:1;stroke:none;stroke-width:0.33198312;stroke-linecap:round;stroke-linejoin:miter;stroke-miterlimit:4;stroke-dasharray:none;stroke-opacity:1" />
  </g>
  <g
     inkscape:groupmode="layer"
     id="layer2"
     inkscape:label="Phone">
    <path
       style="fill:#5fa917;fill-opacity:1;stroke:none;stroke-width:3.33572173;stroke-linecap:round;stroke-linejoin:miter;stroke-miterlimit:4;stroke-dasharray:none;stroke-opacity:1"
       d="M 256 0 A 255.99999 255.99999 0 0 0 0 256 A 255.99999 255.99999 0 0 0 256 512 A 255.99999 255.99999 0 0 0 279.63281 510.68945 C 278.85592 506.90686 278.88262 503.01792 279.16406 499.125 C 279.7735 494.73935 280.56974 490.3835 281.30273 486.01758 C 281.98884 480.16196 284.02014 474.61874 286.03125 469.11719 C 286.9261 466.72421 287.82336 464.3361 288.76758 461.96875 C 284.86387 459.35094 281.04932 456.59606 277.71875 453.25391 C 273.75206 449.21941 269.9392 445.00069 266.56641 440.45312 C 263.57865 436.26988 260.92348 431.90894 258.86133 427.19141 C 258.75841 426.96015 258.66229 426.72591 258.56055 426.49414 C 248.8031 428.10276 239.80347 429.03369 232.31641 430.4082 C 218.18688 433.00213 197.82031 438.16406 197.82031 438.16406 L 164.84766 365.5332 C 164.84766 365.5332 186.4751 350.17381 208.79297 352.41797 C 231.11083 354.66212 261.7081 350.85625 263.74414 328.61133 C 265.78021 306.36642 226.06711 196.92652 206.27344 174.28906 C 186.47976 151.6516 161.03888 141.30861 152.17773 156.39453 C 143.31658 171.48046 140.59903 194.88553 131.63672 202.0957 C 122.67441 209.30588 101.82031 212.61719 101.82031 212.61719 L 69.519531 120.0625 C 69.519531 120.0625 91.930748 111.41825 105.08398 105.12109 C 118.23723 98.823936 164.52063 87.0919 173.39062 90.769531 C 182.26059 94.447189 225.33997 104.26869 236.26367 123.22852 C 247.18736 142.18834 323.83876 253.13209 317.53711 322.87891 C 311.94569 384.76501 306.94057 407.60762 292 416.87305 C 292.65333 418.02134 293.37677 419.12969 294.21484 420.18359 C 296.60974 423.29963 299.19402 426.31151 302.00781 429.06055 C 303.10094 430.11388 304.28875 431.048 305.51953 431.92578 L 305.52148 431.92773 C 305.97666 431.20559 306.42989 430.4821 306.88477 429.75977 C 309.08019 425.93092 311.72924 422.43662 314.57031 419.07031 C 316.63112 416.36349 318.89281 413.84317 321.2207 411.36523 C 324.2626 408.05713 328.04766 405.6756 331.60547 403 C 335.12456 400.26903 339.02817 398.23008 343.01562 396.28906 C 347.05634 394.44926 351.28223 393.15424 355.62109 392.25195 C 360.0347 391.15476 364.56697 391.10573 369.07812 390.87695 C 373.95186 390.78776 378.84264 390.75946 383.70508 391.13477 C 385.47991 391.22094 388.09753 391.57658 389.57227 390.98438 C 390.33622 390.56602 391.41486 390.75315 392.2168 390.32617 C 392.26971 390.29972 391.99195 390.32366 392.04297 390.29297 C 392.35554 390.10248 393.34563 389.6816 392.98242 389.72461 C 394.81844 388.25664 397.01477 387.23128 398.57617 385.44141 C 400.16807 383.33912 402.10945 381.54119 403.78711 379.50977 C 405.65884 377.1403 407.27874 374.58541 408.91406 372.05078 C 410.63046 369.36717 412.31892 366.66655 414.00977 363.9668 C 414.31418 363.44509 414.64503 362.93888 414.97461 362.43164 C 414.89603 360.47603 415.08183 355.92658 414.9375 359.20898 C 414.86607 358.75827 414.98313 358.23128 414.72461 357.85547 C 414.47478 357.49271 414.94638 358.72533 414.9082 359.16406 C 414.88931 359.3572 414.72542 358.82215 414.65625 358.64062 C 413.94445 356.76538 413.81239 356.32938 413.78906 356.20898 C 413.79841 356.30792 413.7344 356.31052 413.34375 355.67188 C 411.25462 352.90607 409.59023 349.7551 407.63867 346.85352 C 406.25008 344.91152 405.1069 342.82325 403.97461 340.73047 C 402.44708 340.31983 400.92635 339.88347 399.41992 339.38086 C 394.69907 337.93257 390.05514 336.29267 385.50977 334.36133 C 380.44947 332.1052 375.66624 329.2945 370.93945 326.41992 C 366.00193 323.53454 361.28845 320.41654 356.95312 316.68359 C 352.23337 312.36701 348.21653 307.34316 344.64258 302.05859 C 342.23975 298.48359 340.34691 294.62022 338.38672 290.79883 C 336.53317 286.9799 335.19411 282.9835 334.17969 278.87109 C 332.98775 274.55696 332.69355 270.0276 332.63477 265.57227 C 332.39359 261.92452 332.85314 258.27738 332.78711 254.63281 C 333.01724 249.28106 333.77151 243.98692 334.54883 238.69531 C 335.25913 233.82875 337.021 229.23966 338.10156 224.46289 C 339.1334 220.27557 339.80823 216.05474 341.04297 211.91211 C 342.63458 207.66356 344.2663 203.42392 346.16016 199.29883 C 348.27367 194.89422 350.80026 190.70985 353.34961 186.54883 C 356.21121 181.55877 359.5736 176.93576 363.33594 172.59375 C 367.23231 168.26675 372.05969 165.03452 376.58594 161.44531 C 379.94289 158.94312 383.15508 156.30548 386.67578 154.02734 C 389.92183 151.61396 393.40354 149.61581 397.06836 147.91602 C 399.81517 146.27637 402.76454 145.00419 405.53516 143.40234 C 408.95234 141.57317 412.63567 140.35114 416.26953 139.04297 C 419.28374 137.7393 422.52896 136.75307 425.75781 135.97656 C 430.22812 135.16187 434.77153 135.00244 439.30273 135.10547 C 443.03468 135.3189 446.77803 135.29223 450.51953 135.41016 C 455.0064 135.76555 459.51103 135.59848 464.00977 135.67188 C 467.81503 135.90287 471.60753 135.39673 475.375 134.9043 C 477.13084 134.63718 478.93731 134.33723 480.63672 133.75586 A 255.99999 255.99999 0 0 0 256 0 z M 495.14453 164.86914 C 494.97957 164.93301 494.81772 165.00346 494.65234 165.06641 C 489.82853 166.87419 484.8786 168.34864 479.73633 168.91016 C 474.33792 169.59352 468.89471 170.21695 463.44531 169.95312 C 458.77306 169.87569 454.09037 170.03784 449.42969 169.67969 C 445.65965 169.5587 441.88787 169.54862 438.12305 169.37109 C 437.9741 169.35783 433.61841 169.52088 433.16602 169.45703 C 431.38855 169.8498 429.5797 170.55917 427.87891 171.30273 C 425.95271 171.99573 424.22008 172.58557 422.32812 173.29297 C 418.61021 175.35475 414.79703 177.23385 411.04102 179.22461 C 408.88933 179.97329 407.22428 181.68077 405.28516 182.82422 C 402.68106 184.50406 400.33009 186.58257 397.76953 188.4043 C 394.83254 190.69884 391.73231 192.77971 389.00391 195.32617 C 386.43337 198.0614 384.51791 201.26814 382.58203 204.4668 C 380.70017 207.53533 378.8092 210.60462 377.21094 213.83398 C 375.90269 216.50178 375.01767 219.35051 373.79492 222.05664 C 372.66643 225.28604 372.60852 228.78165 371.53906 232.03906 C 370.64203 235.99146 369.37519 239.8144 368.45898 243.75 C 367.91727 247.34565 367.42599 250.92426 367.07422 254.54688 C 367.06061 258.09861 366.77446 261.64135 366.91797 265.19336 C 366.93384 267.28965 366.93361 269.36373 367.66211 271.49805 C 367.22615 270.58016 367.78122 271.7107 368.05664 272.89453 C 368.09655 273.06612 367.75741 272.25977 367.81055 272.42773 C 368.11854 273.40129 368.812 274.30075 368.9707 275.30273 C 370.33763 278.01968 371.65128 280.76674 373.34375 283.30469 C 374.98739 286.23094 377.50759 288.71084 379.80664 291.12305 C 382.26568 293.75703 385.90352 295.01508 388.76953 297.13477 C 388.99371 297.2714 389.21894 297.40659 389.44336 297.54297 C 389.41797 296.98032 389.38763 296.42903 389.37109 295.8457 C 389.30609 291.51554 390.28528 287.25244 391.07422 283.01562 C 392.15932 277.5469 394.48696 272.47726 397.0957 267.5918 C 399.23287 263.57572 401.74445 259.82063 404.62891 256.30664 C 408.49336 251.72862 413.4714 248.65982 418.91211 246.32031 C 421.82881 244.65713 425.1437 244.0012 428.27734 242.92188 C 432.12007 241.71782 436.1452 241.1776 440.13672 240.73828 C 446.41111 240.18979 452.29101 241.94011 457.875 244.61719 C 460.96303 246.20931 463.88887 248.0909 466.82031 249.94922 C 469.83925 251.79114 472.77466 253.71627 475.5957 255.84766 C 479.83561 259.15884 483.05413 263.25254 485.66016 267.92188 C 487.14585 270.64478 488.52294 273.42123 489.73242 276.2832 C 491.84367 282.00524 492.06932 287.85505 491.1543 293.81445 C 490.16716 298.44506 487.89366 302.5764 485.48047 306.58984 C 484.71704 307.92786 483.8044 309.17943 483.0293 310.50977 C 482.85884 310.80253 483.37581 309.9254 483.58398 309.6582 C 483.62556 309.60684 483.56684 309.7892 483.54492 309.85156 C 483.41642 310.20741 483.27387 310.55877 483.13867 310.91211 C 481.66655 314.9524 479.4934 318.59907 477.05273 322.11133 C 473.71813 326.36447 469.15862 329.19062 464.91992 332.40234 C 461.44484 334.80256 457.70229 336.8559 453.92578 338.75 C 451.6036 339.39062 449.7052 340.99123 447.48828 341.8457 C 446.71803 342.14259 445.93766 342.41393 445.16016 342.69141 C 446.87436 346.36211 448.25131 350.20926 448.85938 354.2168 C 449.35233 359.363 449.66521 364.5808 448.79297 369.71094 C 447.54916 374.18512 445.80297 378.36813 443.07227 382.1582 C 441.29691 384.99258 439.52678 387.83028 437.72266 390.64648 C 435.31003 394.38198 432.88121 398.12014 430.04883 401.55664 C 427.70677 404.32333 425.18542 406.89689 422.8457 409.66211 C 419.60355 412.82814 416.0554 415.56029 412.2832 418.06445 C 407.57641 421.09567 402.53196 423.50736 396.96094 424.4668 C 391.56279 425.48931 386.11819 425.92372 380.63281 425.2832 C 377.39259 424.80434 374.02358 425.25987 370.75977 425.12305 C 367.94522 425.2576 365.14934 425.13081 362.40234 425.86328 C 360.58116 426.20117 359.54367 426.51168 357.95508 427.15234 C 355.82815 428.17747 353.73552 429.05488 351.91211 430.62891 C 349.9883 432.02767 347.89011 433.24998 346.19727 434.85938 C 344.26624 436.90999 342.50945 438.8654 340.76953 441.19336 C 338.94306 443.35506 337.24467 445.51536 335.89648 448.03906 C 335.81692 448.16528 335.73778 448.29175 335.6582 448.41797 C 338.70123 449.02106 341.81622 449.19529 344.89648 449.56055 C 348.54578 449.89315 352.20775 450.10244 355.86133 450.40234 C 360.59315 450.87286 365.2173 451.95838 369.86523 452.90039 C 375.68397 453.88239 380.94743 456.46511 386.07031 459.27148 C 389.90362 461.42733 393.62682 463.76904 397.34766 466.11133 C 398.1801 466.56992 398.96613 467.05063 399.73242 467.54297 A 255.99999 255.99999 0 0 0 512 256 A 255.99999 255.99999 0 0 0 495.14453 164.86914 z M 443.41602 274.86719 C 441.09833 274.90083 439.58837 275.4057 438.24414 275.72656 C 435.4722 276.54271 435.17515 276.42741 432.14453 277.94922 C 431.68362 278.11956 430.6065 278.99049 430.79102 278.53516 C 430.82503 278.44955 432.9871 276.79428 430.98438 278.37109 C 431.00704 278.29562 431.03258 278.21872 431.06055 278.14453 C 429.67909 279.79652 428.39966 281.741 427.28516 283.84766 C 426.29178 285.66346 425.27237 287.51325 424.73828 289.52344 C 424.00331 293.00973 423.75676 293.95106 423.66016 295.77734 C 423.52031 295.236 423.54916 295.27963 423.65234 296.30469 C 423.79067 297.65891 424.13802 299.01798 424.00781 300.37305 C 423.99647 300.50533 423.90965 299.85835 423.89453 299.99023 C 423.86807 300.19577 423.9525 300.4022 423.98047 300.60742 C 423.92264 300.46354 423.76658 300.02387 423.80664 300.17383 C 424.36321 302.25242 424.79651 303.46557 425.21094 305.14648 C 425.89568 306.88353 426.65106 308.58865 427.42383 310.28906 C 427.96391 310.3197 428.50359 310.35338 429.04883 310.35352 C 430.35152 310.76972 432.32257 310.14161 433.7168 310.29688 C 433.96171 310.32408 432.75752 310.41275 432.99805 310.4668 C 433.26198 310.52608 433.60175 310.44408 433.79492 310.38867 C 435.46467 309.53314 437.08762 308.52899 438.88281 307.93945 C 441.03136 307.01068 442.9679 305.7128 444.41406 304.92578 C 446.06575 303.70299 447.89322 302.62626 449.46875 301.30859 C 449.72461 301.09479 449.89603 300.67984 450.19922 300.60352 C 450.6488 299.74169 451.11675 298.8148 451.12695 298.63867 C 452.44491 295.20251 454.03155 291.90825 456.12695 288.87305 C 456.21466 288.72989 456.68149 287.82598 457.06836 287.17969 C 456.45913 285.99142 455.79397 284.88407 455.11914 283.49414 C 454.71972 283.04027 454.30252 282.61116 453.99609 282.4707 C 454.1726 282.56224 454.68678 282.86186 454.52539 282.74609 C 452.58491 281.35436 450.41948 280.27436 448.46289 278.9043 C 446.55578 277.69513 444.65548 276.47306 442.69141 275.35742 C 441.62955 274.74579 442.95215 275.20548 443.41602 274.86719 z M 455.44531 283.88477 C 456.24567 284.93456 456.05288 284.62649 455.44531 283.88477 z M 457.70312 288.55859 C 457.78176 288.98364 457.87513 289.3679 458.02344 289.32031 C 457.9236 289.04562 457.80988 288.81202 457.70312 288.55859 z M 449.87891 301.2207 C 449.85507 301.24906 449.813 301.28816 449.79688 301.3125 C 449.07052 302.68698 449.38101 302.15318 449.87891 301.2207 z M 416.32227 360.27539 C 416.49461 359.97269 415.96715 360.87669 415.75391 361.15234 C 415.71611 361.20065 415.77577 361.03451 415.78711 360.97461 C 415.73237 361.1146 415.6778 361.25453 415.62305 361.39453 C 415.85959 361.02376 416.10316 360.65616 416.32227 360.27539 z M 318.8457 479.29297 C 318.63645 479.84481 318.43239 480.39732 318.2168 480.94727 C 316.91608 484.45898 315.48099 487.93809 315.11914 491.70117 C 314.56064 495.02213 314.052 498.37459 313.36133 501.6582 C 313.32807 502.0919 313.28985 502.52521 313.25977 502.95898 C 313.24538 503.16725 313.32917 503.56163 313.32422 503.7832 C 313.4838 504.21132 313.64608 504.63852 313.80664 505.06641 A 255.99999 255.99999 0 0 0 365.41211 487.15039 C 364.61657 486.83093 363.78895 486.58477 362.89648 486.46875 C 359.59911 485.77392 356.32262 485.0105 352.97656 484.56641 C 348.86239 484.20168 344.72917 484.0323 340.62305 483.58008 C 335.85736 482.89746 330.98994 482.79211 326.32617 481.46289 C 323.80129 480.84956 321.29843 480.13808 318.8457 479.29297 z M 312.98828 502.26953 C 312.96519 502.2154 312.93375 502.2968 312.88281 502.60938 C 312.94387 502.76981 313.00399 502.93106 313.06445 503.0918 C 313.04048 502.71946 313.0221 502.3488 312.98828 502.26953 z "
       transform="scale(0.26458333)"
       id="path864" />
    <circle
       r="67.73333"
       cy="67.73333"
       cx="-203.2"
       id="circle876"
       style="fill:#5fa917;fill-opacity:1;stroke:none;stroke-width:0.88257641;stroke-linecap:round;stroke-linejoin:miter;stroke-miterlimit:4;stroke-dasharray:none;stroke-opacity:1" />
    <path
       inkscape:connector-curvature="0"
       id="path878"
       d="m -218.59324,115.93097 c -8.72422,-19.216937 -8.72422,-19.216937 -8.72422,-19.216937 0,0 5.72225,-4.063724 11.62719,-3.469956 5.90493,0.593766 14.00079,-0.413127 14.5395,-6.298762 0.53871,-5.885632 -9.96922,-34.841983 -15.2063,-40.831478 -5.23708,-5.989494 -11.96813,-8.725752 -14.31264,-4.734269 -2.34451,3.991484 -3.06356,10.184154 -5.43484,12.091845 -2.37128,1.907693 -7.88875,2.783644 -7.88875,2.783644 l -8.5462,-24.488501 c 0,0 5.92935,-2.286971 9.40948,-3.953093 3.48013,-1.666123 15.72631,-4.770343 18.07316,-3.797303 2.34685,0.973047 13.74483,3.571589 16.63506,8.588043 2.89023,5.016453 23.17068,34.370164 21.50336,52.824008 -1.6673,18.453849 -3.1345,23.790869 -8.39367,25.646639 -5.25916,1.85577 -10.41595,2.11764 -14.15438,2.80396 -3.73843,0.68631 -9.12675,2.05216 -9.12675,2.05216 z"
       style="fill:#2517a9;fill-opacity:1;stroke:none;stroke-width:0.2504473px;stroke-linecap:butt;stroke-linejoin:miter;stroke-opacity:1" />
    <path
       inkscape:connector-curvature="0"
       d="m -195.44708,102.16438 c 0.0166,1.08502 0.1872,2.15229 0.26105,3.23319 0.0621,0.43996 0.11698,1.75609 0.31105,2.09869 0.18626,0.6352 0.44935,1.23845 0.71823,1.84252 0.29477,0.65241 0.62025,1.2721 1.06785,1.83497 0.63365,0.82445 1.31727,1.62135 2.06175,2.3487 0.57845,0.55739 1.25762,0.98831 1.92598,1.42705 0.88147,0.56958 1.77271,1.1238 2.66304,1.67933 0.73975,0.46097 1.47843,0.92365 2.21657,1.38716 0.5472,0.22429 1.10641,0.41523 1.688,0.53646 0.93383,0.2379 1.90013,0.28087 2.85399,0.39398 0.96554,0.088 1.9344,0.14321 2.90108,0.22256 1.25196,0.12449 2.47537,0.41148 3.70514,0.66072 1.53954,0.25982 2.93237,0.94324 4.2878,1.68576 1.01423,0.5704 1.99933,1.19016 2.9838,1.80989 1.32255,0.7286 2.30351,1.60531 3.25593,2.78444 1.05567,1.27755 1.69164,2.78664 2.18173,4.34919 0.3926,1.46209 0.40086,2.99136 0.32282,4.49243 -0.10296,1.3444 -0.36522,2.67197 -0.59741,3.99893 -0.22265,1.32339 -0.73371,2.55639 -1.35584,3.7358 -0.44417,0.80099 -0.94062,1.57127 -1.42973,2.34511 -0.66653,1.07085 -1.4971,2.03377 -2.35973,2.95001 -0.96406,1.01786 -2.17608,1.73086 -3.42196,2.34413 -1.24125,0.54848 -2.55891,0.80873 -3.89963,0.94847 -1.23035,0.13911 -2.45313,-0.10164 -3.66822,-0.26824 -1.26564,-0.19736 -2.4803,-0.63615 -3.67376,-1.08956 -1.17288,-0.33191 -2.27947,-0.83876 -3.3598,-1.39521 -1.20428,-0.65326 -2.36653,-1.38 -3.52822,-2.10524 -0.83492,-0.52365 -1.66821,-1.04991 -2.50232,-1.57486 -1.1447,-0.64914 -2.17189,-1.44554 -3.12381,-2.34993 -0.99166,-0.90448 -1.6987,-2.01533 -2.34247,-3.17938 -0.54619,-0.97458 -0.90365,-2.03472 -1.31209,-3.06938 -0.53804,-1.34355 -0.55756,-2.7626 -0.45494,-4.18217 0.16125,-1.16037 0.3722,-2.31239 0.56614,-3.46754 0.18153,-1.5493 0.71872,-3.01622 1.25082,-4.47184 0.48547,-1.29822 0.97151,-2.59054 1.56837,-3.84269 0.63143,-1.255 1.36996,-2.45159 2.10965,-3.64461 0.61009,-0.97721 1.22572,-1.95096 1.83961,-2.9258 0.58087,-1.01305 1.2816,-1.93753 2.0333,-2.8282 0.54526,-0.71618 1.14379,-1.3831 1.75971,-2.03872 0.80483,-0.87527 1.80637,-1.50573 2.7477,-2.21365 0.9311,-0.72257 1.96379,-1.26191 3.01881,-1.77547 1.0691,-0.48678 2.18722,-0.82922 3.33521,-1.06795 1.16777,-0.2903 2.36697,-0.30334 3.56055,-0.36387 1.28951,-0.0236 2.58356,-0.0313 3.87008,0.068 0.46959,0.0228 1.16208,0.11729 1.55227,-0.0394 0.20213,-0.11069 0.48763,-0.0613 0.69981,-0.17427 0.014,-0.007 -0.0596,-8.8e-4 -0.0461,-0.009 0.0827,-0.0504 0.34448,-0.16173 0.24838,-0.15035 0.48578,-0.3884 1.06689,-0.65972 1.48001,-1.13329 0.42119,-0.55623 0.93477,-1.03162 1.37865,-1.5691 0.49523,-0.626921 0.92408,-1.302903 1.35676,-1.973524 0.45413,-0.710038 0.90067,-1.424897 1.34804,-2.139206 0.19344,-0.331514 0.4205,-0.643707 0.61191,-0.976357 0.0456,-0.08009 -0.0939,0.159011 -0.15032,0.231944 -0.01,0.01278 0.006,-0.03114 0.009,-0.04699 -0.0359,0.09181 -0.0718,0.183628 -0.10777,0.275441 -0.20528,1.397471 -0.0594,-2.054044 -0.11705,-0.742905 -0.0189,-0.119251 0.0118,-0.258299 -0.0566,-0.357733 -0.0661,-0.09598 0.0587,0.230071 0.0486,0.346151 -0.005,0.0511 -0.0484,-0.09085 -0.0667,-0.138878 -0.48979,-1.290362 -0.0338,-0.272581 -0.34724,-0.785014 -0.55275,-0.731786 -0.99317,-1.565803 -1.50952,-2.333513 -0.5692,-0.79605 -0.98312,-1.683944 -1.47073,-2.52745 -0.40691,-0.789096 -0.76651,-1.611617 -1.13539,-2.485984 -0.41625,-0.887796 -0.81977,-1.775652 -1.18135,-2.687607 -0.3048,-0.890888 -0.56017,-1.796542 -0.77545,-2.712424 -0.15344,-1.092892 -0.23962,-2.009623 -0.27003,-3.082377 -0.0172,-1.145688 0.24147,-2.273322 0.45021,-3.394313 0.2871,-1.446936 0.90308,-2.788456 1.59331,-4.081069 0.56546,-1.062588 1.23001,-2.056206 1.99319,-2.98595 1.02247,-1.211268 2.33955,-2.023128 3.77907,-2.642124 0.77171,-0.440051 1.64887,-0.613555 2.47798,-0.899128 1.01672,-0.318573 2.08191,-0.461537 3.138,-0.577774 1.6601,-0.145122 3.21556,0.318199 4.69299,1.02651 0.81704,0.421249 1.59106,0.918721 2.36667,1.4104 0.79876,0.487341 1.57569,0.996654 2.32209,1.560584 1.12181,0.876085 1.97332,1.959351 2.66283,3.194779 0.39309,0.720439 0.75743,1.454845 1.07744,2.212076 0.5586,1.513956 0.61848,3.061848 0.37638,4.638608 -0.26118,1.225182 -0.86293,2.318485 -1.50142,3.380375 -0.20199,0.354017 -0.44359,0.684795 -0.64867,1.03678 -0.0451,0.07746 0.0921,-0.154292 0.14718,-0.224989 0.011,-0.01359 -0.005,0.03463 -0.0108,0.05113 -0.034,0.09415 -0.0717,0.186896 -0.10747,0.280385 -0.3895,1.068994 -0.96425,2.033786 -1.61001,2.963071 -0.88228,1.125311 -2.08846,1.873533 -3.20995,2.723302 -0.91945,0.635056 -1.90993,1.178068 -2.90913,1.679214 -0.61441,0.169497 -1.11684,0.593204 -1.7034,0.819283 -0.39595,0.152616 -0.7978,0.289445 -1.1967,0.434172 -1.31278,0.332489 -2.67833,0.320918 -4.02281,0.298614 -1.33869,-0.0072 -2.65424,-0.245934 -3.95952,-0.519304 -1.20248,-0.202433 -2.38262,-0.480207 -3.53902,-0.866029 -1.24906,-0.383193 -2.47768,-0.816977 -3.68031,-1.327978 -1.33887,-0.596935 -2.60415,-1.340387 -3.85478,-2.100952 -1.30639,-0.763425 -2.55348,-1.588606 -3.70054,-2.576282 -1.24877,-1.142097 -2.31163,-2.471331 -3.25724,-3.869539 -0.63575,-0.945886 -1.13671,-1.9679 -1.65535,-2.978977 -0.49041,-1.010424 -0.84479,-2.068063 -1.11319,-3.156136 -0.31537,-1.141448 -0.39338,-2.339833 -0.40894,-3.518639 -0.0638,-0.965134 0.0582,-1.930072 0.0408,-2.894365 0.0609,-1.415984 0.2601,-2.816621 0.46576,-4.216693 0.18794,-1.287611 0.65409,-2.501964 0.93998,-3.765818 0.27301,-1.107895 0.45197,-2.224512 0.77866,-3.320584 0.42112,-1.124095 0.85265,-2.245997 1.35373,-3.337427 0.5592,-1.165385 1.22783,-2.272276 1.90235,-3.373213 0.75713,-1.320285 1.64675,-2.543251 2.6422,-3.692075 1.03091,-1.144853 2.30801,-2.000466 3.50558,-2.95011 0.8882,-0.662038 1.73816,-1.359657 2.66968,-1.962414 0.85885,-0.63854 1.77974,-1.167385 2.74939,-1.617121 0.72676,-0.433823 1.50756,-0.770453 2.24062,-1.194274 0.90413,-0.483968 1.87834,-0.807088 2.8398,-1.153207 0.79751,-0.344928 1.65611,-0.60613 2.51041,-0.811581 1.18277,-0.215555 2.38478,-0.257725 3.58366,-0.230464 0.98741,0.05647 1.97815,0.04977 2.96809,0.08097 1.18715,0.09403 2.37875,0.04989 3.56904,0.06931 1.00681,0.06112 2.01027,-0.0731 3.00708,-0.20339 0.60699,-0.09234 1.23756,-0.198131 1.79679,-0.467685 0.68098,-0.283492 1.38237,-0.537283 2.01723,-0.918292 0.58144,-0.357888 1.16657,-0.703998 1.61561,-1.224194 0.68414,-0.77713 1.38542,-1.53505 2.01042,-2.361749 0.35177,-0.472561 0.67867,-0.962694 1.00253,-1.454546 3.53224,-5.354313 11.10438,-0.358974 7.57214,4.99534 v 0 c -0.43992,0.665969 -0.88552,1.328564 -1.3661,1.966208 -0.84405,1.097811 -1.76166,2.12931 -2.69177,3.154424 -1.11431,1.121269 -2.34749,2.083618 -3.73332,2.852118 -1.00896,0.547877 -2.04932,1.030447 -3.12291,1.439081 -1.2763,0.478309 -2.5859,0.868422 -3.94646,1.016991 -1.42833,0.180807 -2.86863,0.345692 -4.31045,0.275888 -1.2362,-0.02049 -2.47491,0.02209 -3.70805,-0.07267 -0.99749,-0.03201 -1.99574,-0.03479 -2.99185,-0.08176 -0.0483,-0.0043 -1.7958,0.06345 -1.22521,0.002 -0.49774,0.09869 -1.00759,0.300752 -1.48505,0.509493 -0.50964,0.183355 -0.96802,0.339424 -1.4686,0.526589 -0.9837,0.545513 -1.99253,1.042427 -2.98631,1.569149 -0.5693,0.198089 -1.01026,0.649939 -1.52332,0.952477 -0.689,0.444458 -1.31096,0.994247 -1.98844,1.476246 -0.77708,0.607099 -1.5974,1.157885 -2.31929,1.831636 -0.68012,0.723695 -1.18681,1.571963 -1.69901,2.418273 -0.49791,0.811884 -0.99791,1.624293 -1.42079,2.478728 -0.34614,0.705854 -0.58064,1.459241 -0.90416,2.175238 -0.29858,0.854446 -0.31388,1.779636 -0.59684,2.641494 -0.23734,1.045739 -0.57238,2.057165 -0.81479,3.098458 -0.14333,0.951349 -0.27356,1.897916 -0.36664,2.8564 -0.004,0.939733 -0.0793,1.877387 -0.0413,2.817189 0.004,0.554643 0.004,1.103091 0.19725,1.667795 -0.11535,-0.242858 0.0311,0.05665 0.10401,0.369873 0.0106,0.0454 -0.0789,-0.168301 -0.0649,-0.123861 0.0815,0.257586 0.26484,0.495702 0.30683,0.76081 0.36167,0.718859 0.70954,1.445458 1.15734,2.116956 0.43488,0.774238 1.10134,1.430591 1.70963,2.068822 0.65062,0.696909 1.61305,1.029556 2.37135,1.59039 0.88374,0.538629 1.77332,1.072781 2.71186,1.511867 1.00837,0.438415 2.05365,0.768714 3.10043,1.102614 0.77789,0.330941 1.65699,0.354302 2.46896,0.564039 0.78337,0.184838 1.56796,0.319073 2.37596,0.319278 0.34467,0.110122 0.86653,-0.05635 1.23542,-0.01527 0.0648,0.0072 -0.25408,0.03073 -0.19044,0.04503 0.14228,0.03196 0.37213,-0.09116 0.17436,0.0059 -0.17047,0.08029 -0.32581,0.208406 -0.51142,0.240867 -0.48296,0.08445 0.48977,-0.237897 0.54637,-0.266878 0.44229,-0.22652 0.87228,-0.492188 1.34777,-0.648337 0.56847,-0.245737 1.08085,-0.589226 1.46348,-0.797458 0.43701,-0.32353 0.92043,-0.608449 1.33729,-0.957081 0.0747,-0.06242 0.12032,-0.195263 0.21786,-0.194243 0.0783,6.72e-4 -0.0875,0.129939 -0.13076,0.195182 -0.39132,0.74049 0.34486,-0.592832 0.35151,-0.707583 0.34871,-0.909151 0.76901,-1.780427 1.32342,-2.58349 0.0483,-0.07883 0.52086,-1.019599 0.36526,-0.43461 -0.008,0.163723 0.0372,0.654438 0.0207,0.491348 -0.0147,-0.143913 -0.1023,-0.293102 -0.0564,-0.43028 0.0553,-0.164608 0.0709,0.524103 0.17211,0.491626 -0.21748,-0.598388 -0.50102,-0.980218 -0.78428,-1.571104 0.64834,0.874256 -0.0124,-0.11757 -0.2814,-0.240873 0.0467,0.02422 0.1826,0.10333 0.1399,0.0727 -0.51342,-0.368229 -1.08624,-0.653884 -1.60392,-1.016381 -0.50459,-0.319926 -1.00745,-0.643489 -1.52711,-0.938669 -0.28095,-0.161828 0.0691,-0.04034 0.19183,-0.129846 -0.61322,0.0089 -1.01295,0.142824 -1.36861,0.227719 -0.73341,0.215938 -0.81196,0.185397 -1.61381,0.588042 -0.12195,0.04507 -0.40673,0.275335 -0.35791,0.154861 0.009,-0.02265 0.58089,-0.460629 0.051,-0.04343 0.006,-0.01997 0.013,-0.03993 0.0204,-0.05956 -0.36551,0.437089 -0.70427,0.95119 -0.99915,1.508576 -0.26283,0.480431 -0.53248,0.970223 -0.67379,1.502084 -0.19446,0.922415 -0.25974,1.17127 -0.2853,1.654474 -0.037,-0.143231 -0.0293,-0.131633 -0.002,0.139579 0.0366,0.358305 0.12825,0.717916 0.0938,1.076445 -0.003,0.035 -0.0256,-0.136104 -0.0296,-0.101209 -0.007,0.05438 0.015,0.108578 0.0224,0.162877 -0.0153,-0.03807 -0.0566,-0.153915 -0.046,-0.114239 0.14726,0.54996 0.2619,0.870511 0.37155,1.315254 0.33406,0.847447 0.73063,1.66668 1.1052,2.500968 0.24054,0.572616 0.47143,1.095455 0.74793,1.651158 0.009,0.01742 -0.0262,-0.02877 -0.0392,-0.04316 0.35264,0.645741 0.66718,1.303452 1.09274,1.905839 0.65463,0.992214 1.24636,2.021089 1.91461,3.004361 0.65835,1.241119 1.22366,2.565593 1.43584,3.964 0.13043,1.361599 0.21308,2.742531 -0.0177,4.09988 -0.32909,1.183795 -0.79095,2.290156 -1.51345,3.292946 -0.46973,0.74993 -0.93778,1.50093 -1.41512,2.24605 -0.63834,0.98835 -1.28134,1.97753 -2.03074,2.88677 -0.61967,0.73202 -1.28652,1.41289 -1.90557,2.14452 -0.85782,0.83768 -1.79661,1.56041 -2.79467,2.22297 -1.24534,0.80201 -2.58022,1.44034 -4.05422,1.69419 -1.42826,0.27054 -2.86887,0.38515 -4.32021,0.21568 -0.85731,-0.1267 -1.74833,-0.006 -2.61188,-0.0422 -0.74469,0.0356 -1.48486,0.002 -2.21167,0.1958 -0.48186,0.0894 -0.75638,0.17157 -1.17669,0.34108 -0.56275,0.27123 -1.11598,0.5033 -1.59842,0.91976 -0.50901,0.37009 -1.06415,0.6934 -1.51205,1.11922 -0.51092,0.54256 -0.97588,1.05992 -1.43624,1.67586 -0.48325,0.57195 -0.93257,1.14376 -1.28928,1.81149 -0.60288,0.95634 -1.20662,1.91214 -1.80528,2.87114 -0.57104,0.92066 -1.14445,1.84173 -1.64708,2.80218 -0.48285,0.98181 -0.82683,2.01633 -1.22562,3.03359 -0.34415,0.92914 -0.72355,1.8498 -0.81929,2.84545 -0.14777,0.87867 -0.28275,1.76539 -0.46549,2.63418 -0.009,0.11475 -0.0184,0.22937 -0.0264,0.34414 -0.006,0.0854 0.0566,0.30262 -0.0152,0.25617 -0.0559,-0.0361 -0.0309,-0.67907 -0.0848,-0.34826 0.2484,0.65275 0.47476,1.31617 0.78684,1.94254 0.0795,0.14402 0.16336,0.28568 0.23851,0.432 0.0208,0.0406 0.08,0.10733 0.0408,0.13068 -0.02,0.0118 -0.075,-0.0542 -0.0595,-0.0368 0.18553,0.20908 0.3954,0.39561 0.57834,0.60718 0.2,0.4299 1.21918,0.797 1.56301,1.10756 0.82402,0.51862 1.64697,1.03893 2.47204,1.55585 0.96175,0.60038 1.92314,1.2029 2.91413,1.75434 0.7827,0.41616 1.59852,0.7334 2.45045,0.98349 0.5356,0.21864 1.08565,0.40854 1.63797,0.56127 0.94911,0.13357 1.17778,0.23416 1.66582,0.21402 0.50663,-0.0582 0.38371,-0.065 0.86122,-0.16944 0.0409,-0.009 -0.0696,0.0468 -0.10428,0.0703 0.42275,-0.16916 0.57706,-0.24912 0.84312,-0.50338 0.24251,-0.1188 0.96739,-1.14587 1.17025,-1.44707 0.3727,-0.58975 0.75086,-1.17655 1.10061,-1.78035 0.18211,-0.32681 0.36154,-0.65096 0.41915,-1.02723 0.17394,-0.97944 0.36541,-1.9605 0.47498,-2.94798 0.0475,-0.6788 0.0709,-1.24038 -0.0329,-1.63778 0.031,0.0452 0.10681,0.18861 0.0932,0.13549 -0.1265,-0.49102 -0.44724,-0.96089 -0.74935,-1.35261 0.83689,0.44476 -0.78034,-0.5037 -0.84791,-0.57199 -0.83556,-0.52586 -1.67044,-1.05366 -2.52891,-1.54173 -0.56854,-0.31616 -1.0965,-0.66338 -1.75475,-0.74895 -0.87243,-0.18384 -1.73947,-0.3859 -2.62478,-0.5034 -1.08854,-0.0965 -2.18171,-0.14148 -3.26812,-0.26113 -1.26092,-0.18061 -2.54897,-0.20857 -3.78293,-0.56026 -1.54676,-0.37573 -3.06671,-0.8758 -4.44705,-1.68562 -0.73278,-0.45951 -1.46552,-0.91908 -2.19961,-1.37651 -0.95159,-0.594 -1.90432,-1.18636 -2.84575,-1.79641 -1.18723,-0.78225 -2.36054,-1.5933 -3.36843,-2.6047 -1.04952,-1.06746 -2.05804,-2.1838 -2.95042,-3.38701 -0.79051,-1.10682 -1.49332,-2.26089 -2.03893,-3.50907 -0.4844,-1.08843 -0.92169,-2.19765 -1.23557,-3.34864 -0.27537,-1.2077 -0.48723,-2.43467 -0.55709,-3.67316 -0.0678,-1.03266 -0.24643,-2.05346 -0.25038,-3.09109 -0.53043,-6.3925 8.50993,-7.142635 9.04035,-0.75013 z"
       id="path880"
       style="fill:#2517a9;fill-opacity:1;stroke:none;stroke-width:0.26458332;stroke-linecap:round;stroke-linejoin:miter;stroke-miterlimit:4;stroke-dasharray:none;stroke-opacity:1" />
  </g>
</svg>
